<svg width="14" height="16" viewBox="0 0 14 16" fill="none" xmlns="http://www.w3.org/2000/svg">
<path d="M13.5652 11.2753C13.0429 10.8558 12.6232 10.3326 12.3355 9.74242C12.0478 9.15225 11.899 8.50933 11.8996 7.85867V6C11.8996 3.654 10.0694 1.712 7.69877 1.38667V0.666667C7.69877 0.489856 7.625 0.320286 7.4937 0.195262C7.3624 0.0702379 7.18432 0 6.99863 0C6.81294 0 6.63486 0.0702379 6.50356 0.195262C6.37226 0.320286 6.29849 0.489856 6.29849 0.666667V1.38667C3.92713 1.712 2.09767 3.654 2.09767 6V7.85867C2.09794 8.51065 1.94842 9.15479 1.6596 9.74593C1.37078 10.3371 0.949651 10.8609 0.425741 11.2807C0.236396 11.4361 0.10144 11.6429 0.0389469 11.8734C-0.0235461 12.1038 -0.0105929 12.347 0.0760719 12.5703C0.162737 12.7935 0.318975 12.9863 0.523865 13.1226C0.728755 13.259 0.972513 13.3325 1.2225 13.3333H12.7748C13.4504 13.3333 14 12.81 14 12.1667C14 11.8253 13.8439 11.5027 13.5652 11.2753ZM6.99863 16C7.60356 15.9992 8.18971 15.7999 8.65828 15.4355C9.12684 15.0712 9.44917 14.5642 9.57093 14H4.42632C4.54808 14.5642 4.87041 15.0712 5.33898 15.4355C5.80755 15.7999 6.3937 15.9992 6.99863 16Z" fill="#FFC632"/>
</svg>
