<svg width="13" height="12" viewBox="0 0 13 12" fill="none" xmlns="http://www.w3.org/2000/svg">
<path d="M12.8142 5.57172L7.09697 0.177143C6.8461 -0.0590475 6.43965 -0.0590475 6.18815 0.177143C5.93728 0.413335 5.93728 0.796971 6.18815 1.03316L11.4519 5.9997L6.18879 10.9662C5.93792 11.2024 5.93792 11.5861 6.18879 11.8229C6.43965 12.059 6.84673 12.059 7.0976 11.8229L12.8148 6.42833C13.0618 6.19458 13.0618 5.80492 12.8142 5.57172Z" fill="#95BFF0"/>
<path d="M6.81419 5.57172L1.09697 0.177143C0.846099 -0.0590475 0.439652 -0.0590475 0.188151 0.177143C-0.0627166 0.413335 -0.0627166 0.796971 0.188151 1.03316L5.45189 5.9997L0.188785 10.9662C-0.0620826 11.2024 -0.0620826 11.5861 0.188785 11.8229C0.439653 12.059 0.846732 12.059 1.0976 11.8229L6.81482 6.42833C7.06183 6.19458 7.06183 5.80492 6.81419 5.57172Z" fill="#95BFF0"/>
</svg>
