<svg width="32" height="32" viewBox="0 0 32 32" fill="none" xmlns="http://www.w3.org/2000/svg">
<path d="M6.42381 17.5571C6.60755 18.1623 6.79751 18.7882 6.89231 19.4186C6.93105 19.6755 7.083 21.5443 7.16514 22.5711C7.18043 22.7621 7.25921 22.9424 7.3887 23.0826C7.51819 23.2227 7.6908 23.3146 7.8785 23.3433L9.22862 23.5494C9.32362 23.5639 9.41188 23.6077 9.4813 23.6747C9.55072 23.7418 9.59792 23.8289 9.61643 23.9241L9.79432 24.8429C9.83181 25.0365 9.93481 25.2109 10.0857 25.3362C10.2365 25.4616 10.4258 25.5301 10.6212 25.53L21.0913 25.5237C21.2834 25.5236 21.4698 25.4571 21.6194 25.3353C21.7689 25.2135 21.8727 25.0437 21.9136 24.8541L22.1173 23.9082C22.1393 23.817 22.1878 23.7345 22.2566 23.6713C22.3254 23.6081 22.4113 23.5671 22.5033 23.5536L24.1471 23.3125C24.3387 23.2844 24.5149 23.1905 24.6459 23.0466C24.777 22.9027 24.8549 22.7176 24.8665 22.5224C24.9296 21.466 25.0473 19.5428 25.0838 19.2793C25.1702 18.6571 25.352 18.0421 25.5277 17.4438C25.7739 16.6066 26.0285 15.7424 26.0285 14.8436C26.0288 9.10393 21.5107 4.43534 15.9575 4.43534C10.4043 4.43534 5.88624 9.10646 5.88624 14.8474C5.88629 15.7863 6.15955 16.6866 6.42381 17.5571ZM17.2698 17.0274C17.3337 15.3971 18.7814 14.9872 20.3959 15.0516C22.0104 15.1161 23.1802 15.6305 23.1163 17.2608C23.0525 18.8911 21.692 20.1604 20.0775 20.0959C18.463 20.0315 17.206 18.6576 17.2698 17.0274ZM16.32 20.2264L17.3679 21.7934C17.4136 21.8617 17.4407 21.9409 17.4466 22.0231C17.4524 22.1053 17.4368 22.1876 17.4013 22.2618L17.251 22.576C17.2128 22.6557 17.1532 22.7229 17.0789 22.77C17.0047 22.817 16.9188 22.842 16.8311 22.842H15.0359C14.9482 22.842 14.8623 22.817 14.788 22.77C14.7138 22.7229 14.6542 22.6557 14.616 22.576L14.4657 22.2618C14.4302 22.1876 14.4146 22.1053 14.4205 22.0231C14.4263 21.9409 14.4534 21.8617 14.4991 21.7934L15.547 20.2264C15.7319 19.9499 16.1351 19.9499 16.32 20.2264ZM11.5189 15.0517C13.1334 14.9872 14.5812 15.3971 14.645 17.0274C14.7089 18.6577 13.4518 20.0315 11.8373 20.096C10.2229 20.1604 8.86234 18.8911 8.7985 17.2609C8.73466 15.6305 9.90443 15.1161 11.5189 15.0517ZM29.0902 2.93824C29.2158 2.15946 28.981 1.3329 28.3844 0.733535C27.4261 -0.229191 25.8628 -0.24672 24.8848 0.695468C23.8622 1.68063 23.8477 3.3167 24.8415 4.32018L23.9281 5.24257C23.5631 5.61116 23.5631 6.20873 23.9281 6.57731L25.4863 8.15081C25.8513 8.5194 26.4431 8.5194 26.8081 8.15081L27.7216 7.22842C28.7154 8.23196 30.3356 8.21734 31.3112 7.18471C32.2443 6.19711 32.2269 4.61849 31.2735 3.65096C30.6799 3.04853 29.8614 2.81142 29.0902 2.93824ZM4.2784 7.22837L5.19186 8.15076C5.55688 8.51934 6.14867 8.51934 6.51364 8.15076L8.07191 6.57726C8.43693 6.20868 8.43693 5.6111 8.07191 5.24252L7.15845 4.32013C8.15228 3.31664 8.13779 1.68058 7.11516 0.695415C6.13712 -0.24672 4.57383 -0.229191 3.6156 0.733535C3.01906 1.3329 2.78423 2.15946 2.90983 2.93824C2.13859 2.81142 1.32008 3.04853 0.726458 3.65091C-0.226953 4.61844 -0.244365 6.19706 0.688706 7.18465C1.66434 8.21728 3.28457 8.23186 4.2784 7.22837ZM31.3113 24.8153C30.3357 23.7826 28.7154 23.7681 27.7217 24.7716L26.8082 23.8492C26.4432 23.4806 25.8514 23.4806 25.4864 23.8492L23.9282 25.4227C23.5632 25.7913 23.5632 26.3889 23.9282 26.7574L24.8416 27.6798C23.8478 28.6834 23.8623 30.3194 24.8849 31.3045C25.863 32.2467 27.4263 32.2292 28.3845 31.2665C28.9811 30.6671 29.2159 29.8405 29.0903 29.0618C29.8615 29.1886 30.68 28.9515 31.2736 28.349C32.227 27.3815 32.2443 25.8029 31.3113 24.8153ZM2.90983 29.0617C2.78423 29.8405 3.01906 30.6671 3.61566 31.2664C4.57388 32.2291 6.13717 32.2467 7.11521 31.3045C8.13785 30.3193 8.15228 28.6833 7.1585 27.6798L8.07197 26.7574C8.43698 26.3889 8.43698 25.7912 8.07197 25.4226L6.51369 23.8491C6.14867 23.4806 5.55688 23.4806 5.19192 23.8491L4.27845 24.7715C3.28462 23.768 1.66439 23.7826 0.688811 24.8152C-0.24426 25.8028 -0.226901 27.3814 0.72651 28.349C1.32008 28.9514 2.13859 29.1885 2.90983 29.0617Z" fill="url(#paint0_linear_2_676)"/>
<defs>
<linearGradient id="paint0_linear_2_676" x1="0" y1="0" x2="32" y2="32" gradientUnits="userSpaceOnUse">
<stop/>
<stop offset="1" stop-color="#050400"/>
</linearGradient>
</defs>
</svg>
