<svg id="Логотип_2" data-name="Логотип 2" xmlns="http://www.w3.org/2000/svg" xmlns:xlink="http://www.w3.org/1999/xlink" width="76" height="76" viewBox="0 0 76 76">
  <defs>
    <linearGradient id="linear-gradient" x2="1" y2="1" gradientUnits="objectBoundingBox">
      <stop offset="0" stop-color="#0a152d"/>
      <stop offset="1" stop-color="#171717"/>
    </linearGradient>
  </defs>
  <path id="Mask" d="M76,52.334c0,.9,0,1.807-.005,2.712,0,.761-.013,1.522-.034,2.282a32.741,32.741,0,0,1-.442,4.968,16.581,16.581,0,0,1-1.575,4.726,15.881,15.881,0,0,1-2.955,4.023,16.061,16.061,0,0,1-4.07,2.923,17.055,17.055,0,0,1-4.778,1.557,33.888,33.888,0,0,1-5.027.437C53.889,76,52.975,76,52.061,76H23.94c-3.513-.01-4.282-.018-5.052-.039a33.888,33.888,0,0,1-5.027-.437,17.055,17.055,0,0,1-4.778-1.557,15.981,15.981,0,0,1-7.027-6.945A16.664,16.664,0,0,1,.482,62.3a32.741,32.741,0,0,1-.441-4.968c-.021-.761-.03-1.522-.034-2.282C0,54.141,0,53.237,0,52.334V23.666c0-.9,0-1.808.007-2.71,0-.762.013-1.523.034-2.284A32.758,32.758,0,0,1,.482,13.7,16.655,16.655,0,0,1,2.057,8.979,15.98,15.98,0,0,1,9.084,2.034,17.055,17.055,0,0,1,13.861.477,33.888,33.888,0,0,1,18.888.039C22.112,0,23.026,0,23.94,0H51.312l-9.75,0,10.5,0c3.511.01,4.281.018,5.052.039A33.888,33.888,0,0,1,62.14.477a17.055,17.055,0,0,1,4.778,1.557,16.029,16.029,0,0,1,4.07,2.923,15.835,15.835,0,0,1,2.955,4.023A16.572,16.572,0,0,1,75.518,13.7a32.758,32.758,0,0,1,.442,4.969c.021.761.03,1.522.034,2.284.005.9.005,1.807.005,2.71V52.334Z" fill="url(#linear-gradient)"/>
  <path id="Combined_Shape" data-name="Combined Shape" d="M0,23A23.215,23.215,0,0,1,23.425,0,23.582,23.582,0,0,1,40,6.747l-4.256,4.175A17.506,17.506,0,0,0,23.425,5.907,17.253,17.253,0,0,0,6.016,23,17.253,17.253,0,0,0,23.425,40.093,17.519,17.519,0,0,0,35,35.767l4,4.409A23.593,23.593,0,0,1,23.425,46,23.215,23.215,0,0,1,0,23Zm11.111.231A12.107,12.107,0,0,1,23.327,11.236a12.3,12.3,0,0,1,8.644,3.52L27.714,18.93a6.23,6.23,0,0,0-4.388-1.786,6.089,6.089,0,1,0,0,12.176,6.229,6.229,0,0,0,4.123-1.54l4,4.41a12.309,12.309,0,0,1-8.125,3.037A12.107,12.107,0,0,1,11.111,23.231Z" transform="translate(18 15)" fill="#7fbe3f"/>
</svg>
