<svg xmlns="http://www.w3.org/2000/svg" xmlns:xlink="http://www.w3.org/1999/xlink" width="12" height="12" viewBox="0 0 12 12">
  <g transform="translate(522 -1906)">
    <g transform="translate(-522 1907.412)">
      <path d="M13.829,3.233c-.162.1-.137.36.083.855a7.824,7.824,0,0,1,.027,6.324c-.257.58-.28.817-.089.926.255.146.425.025.654-.464a7.7,7.7,0,0,0,.769-3.592A7.7,7.7,0,0,0,14.509,3.7C14.262,3.17,14.1,3.062,13.829,3.233Zm-1.305,1.1c-.123.132-.094.415.085.834a6.857,6.857,0,0,1,.406,2.051,6.083,6.083,0,0,1-.325,1.936c-.326.963-.3,1.2.115,1.152.217-.027.385-.324.624-1.1a7.012,7.012,0,0,0,0-3.859c-.227-.757-.4-1.056-.634-1.081A.371.371,0,0,0,12.524,4.328ZM11.2,5.5c-.093.152-.091.2.029.615a4.074,4.074,0,0,1-.035,2.475c-.085.267-.084.315.007.463a.32.32,0,0,0,.494.08,4.179,4.179,0,0,0,.378-2.415,2.787,2.787,0,0,0-.378-1.3A.32.32,0,0,0,11.2,5.5Z" transform="translate(-3.274 -2.341)"  fill-rule="evenodd"/>
      <path d="M5.239,3.211,3.823,4.42l-.7.17-1.1.006a9.225,9.225,0,0,0-1.283.065,1.274,1.274,0,0,0-.651.659,15.962,15.962,0,0,0-.02,3.2,1.309,1.309,0,0,0,.694.7,8.07,8.07,0,0,0,1.25.067H3.039l.7.1L5.2,10.636c1.463,1.252,1.662,1.375,1.862,1.161.111-.118.111-9.6,0-9.714C6.861,1.873,6.66,2,5.239,3.211Z" transform="translate(0 -2)" />
    </g>
  </g>
</svg>
