<svg id="Component_49_2" data-name="Component 49 – 2" xmlns="http://www.w3.org/2000/svg" xmlns:xlink="http://www.w3.org/1999/xlink" width="30" height="30" viewBox="0 0 30 30">
  <g transform="translate(1973 1180) rotate(180)">
    <path d="M7.754,3.124a2,2,0,0,1,3.492,0l6.091,10.9A2,2,0,0,1,15.591,17H3.409a2,2,0,0,1-1.746-2.976Z" transform="translate(1975 1155) rotate(90)" />
    <path d="M7.754,3.124a2,2,0,0,1,3.492,0l6.091,10.9A2,2,0,0,1,15.591,17H3.409a2,2,0,0,1-1.746-2.976Z" transform="translate(1960 1155) rotate(90)"/>
  </g>
</svg>
