<svg xmlns="http://www.w3.org/2000/svg" xmlns:xlink="http://www.w3.org/1999/xlink" width="30" height="30" viewBox="0 0 30 30">
    <path d="M5.86.109A3.252,3.252,0,0,0,3.6,2.46C3.513,2.793,3.5,4.44,3.5,15c0,10.7.012,12.2.1,12.548a3.243,3.243,0,0,0,2.3,2.346,24.42,24.42,0,0,0,4.624,0,3.23,3.23,0,0,0,2.29-2.354c.085-.333.1-1.98.1-12.538,0-10.7-.012-12.2-.1-12.548A3.23,3.23,0,0,0,10.512.1,25.474,25.474,0,0,0,5.86.109Zm13.591,0a3.252,3.252,0,0,0-2.262,2.35c-.085.333-.1,1.98-.1,12.538,0,10.7.012,12.2.1,12.548a3.243,3.243,0,0,0,2.3,2.346,24.419,24.419,0,0,0,4.624,0,3.23,3.23,0,0,0,2.29-2.354c.085-.333.1-1.98.1-12.538,0-10.7-.012-12.2-.1-12.548A3.23,3.23,0,0,0,24.1.1,25.474,25.474,0,0,0,19.451.109Z"  fill-rule="evenodd"/>
</svg>
