<svg xmlns="http://www.w3.org/2000/svg" xmlns:xlink="http://www.w3.org/1999/xlink" width="12" height="12" viewBox="0 0 12 12">
  <g  transform="translate(495 -1906)">
    <path d="M5.239,3.211,3.823,4.42l-.7.17-1.1.006a9.225,9.225,0,0,0-1.283.065,1.274,1.274,0,0,0-.651.659,15.962,15.962,0,0,0-.02,3.2,1.309,1.309,0,0,0,.694.7,8.079,8.079,0,0,0,1.25.067H3.039l.7.1L5.2,10.636c1.463,1.252,1.662,1.375,1.862,1.161.111-.118.111-9.6,0-9.714C6.861,1.873,6.66,2,5.239,3.211Z" transform="translate(-495 1905.059)" />
  </g>
</svg>
