<svg width="53" height="96" viewBox="0 0 53 96" fill="none" xmlns="http://www.w3.org/2000/svg">
<path d="M51.2917 47.25V54.5C51.2917 61.2299 48.6797 67.6841 44.0304 72.4428C39.3811 77.2016 33.0752 83 26.5 83M26.5 83C19.9249 83 13.619 77.2016 8.96968 72.4428C4.32035 67.6841 1.70837 61.2299 1.70837 54.5V47.25M26.5 83V94.375M16.5 94.375H37" stroke="white" stroke-width="3" stroke-linecap="round" stroke-linejoin="round"/>
<path d="M26.5 3C22.3891 3 18.4467 4.60293 15.5399 7.45616C12.633 10.3094 11 14.1792 11 18.2143V58.7857C11 62.8208 12.633 66.6906 15.5399 69.5438C18.4467 72.3971 22.3891 74 26.5 74C30.6109 74 34.5533 72.3971 37.4601 69.5438C40.367 66.6906 42 62.8208 42 58.7857V18.2143C42 14.1792 40.367 10.3094 37.4601 7.45616C34.5533 4.60293 30.6109 3 26.5 3Z" fill="white" stroke="white" stroke-width="6" stroke-linecap="round" stroke-linejoin="round"/>
</svg>
