<svg id="Capa_1" enable-background="new 0 0 512 512" height="512" viewBox="0 0 512 512" width="512" xmlns="http://www.w3.org/2000/svg"><g><g><path d="m370.359 85.84c-18.499-50.11-66.687-85.84-123.223-85.84-71.741 0-130.036 57.534-131.284 128.977-44.826 5.833-79.446 44.161-79.446 90.577 0 50.45 40.898 91.348 91.348 91.348h235.183c62.218 0 112.656-50.438 112.656-112.656.001-59.724-46.477-108.584-105.234-112.406z" fill="#f9f6f6"/><g><path d="m370.359 85.84c-18.499-50.11-66.687-85.84-123.223-85.84-24.742 0-47.883 6.845-67.637 18.741 15.242-6.19 31.906-9.608 49.371-9.608 55.443 0 102.857 34.362 122.116 82.949.692 1.746 2.316 2.96 4.185 3.133 57.294 5.297 102.155 53.488 102.155 112.164 0 40.489-21.364 75.984-53.43 95.842 41.966-16.387 71.697-57.207 71.697-104.975.001-59.724-46.477-108.584-105.234-112.406z" fill="#dfeaef"/></g></g><g fill="#cbe2ff"><path d="m287.16 400.835c2.143-3.631.936-8.312-2.695-10.454l-13.22-7.802 13.22-7.802c3.631-2.142 4.838-6.823 2.695-10.454-2.143-3.632-6.825-4.835-10.454-2.694l-12.846 7.582v-14.943c0-4.216-3.417-7.634-7.634-7.634s-7.634 3.418-7.634 7.634v14.943l-12.847-7.582c-3.628-2.141-8.31-.937-10.454 2.694-2.143 3.631-.936 8.312 2.695 10.454l13.22 7.802-13.22 7.802c-8.361 5.377-1.182 17.9 7.759 13.149l12.847-7.582v14.943c0 4.216 3.417 7.634 7.634 7.634 4.216 0 7.634-3.418 7.634-7.634v-14.943l12.846 7.582c2.874 1.839 8.222 1.192 10.454-2.695z"/><path d="m171.652 400.835c2.143-3.631.936-8.312-2.695-10.454l-13.22-7.802 13.22-7.802c3.631-2.142 4.838-6.823 2.695-10.454-2.143-3.632-6.824-4.835-10.454-2.694l-12.846 7.582v-14.943c0-4.216-3.417-7.634-7.634-7.634s-7.634 3.418-7.634 7.634v14.943l-12.846-7.582c-3.629-2.141-8.31-.937-10.454 2.694-2.143 3.631-.937 8.312 2.695 10.454l13.22 7.802-13.22 7.802c-8.361 5.377-1.182 17.9 7.759 13.149l12.846-7.582v14.943c0 4.216 3.417 7.634 7.634 7.634s7.634-3.418 7.634-7.634v-14.943l12.846 7.582c2.874 1.839 8.222 1.192 10.454-2.695z"/><path d="m402.669 364.321c-2.144-3.632-6.824-4.835-10.454-2.694l-12.846 7.582v-14.943c0-4.216-3.418-7.634-7.634-7.634-4.217 0-7.634 3.418-7.634 7.634v14.943l-12.847-7.582c-3.628-2.141-8.31-.937-10.454 2.694-2.143 3.631-.936 8.312 2.695 10.454l13.22 7.802-13.22 7.802c-8.361 5.377-1.182 17.9 7.759 13.149l12.847-7.582v14.943c0 4.216 3.418 7.634 7.634 7.634s7.634-3.418 7.634-7.634v-14.943l12.846 7.582c8.654 4.81 16.227-7.834 7.759-13.149l-13.22-7.802 13.22-7.802c3.631-2.142 4.838-6.823 2.695-10.454z"/><path d="m344.915 457.797c-2.143-3.631-6.825-4.836-10.454-2.694l-12.848 7.582v-14.943c0-4.216-3.417-7.634-7.634-7.634s-7.634 3.418-7.634 7.634v14.943l-12.847-7.582c-3.628-2.142-8.31-.937-10.454 2.694-2.143 3.631-.936 8.312 2.695 10.454l13.221 7.802-13.221 7.802c-8.362 5.377-1.183 17.899 7.759 13.149l12.847-7.581v14.943c0 4.216 3.417 7.634 7.634 7.634s7.634-3.418 7.634-7.634v-14.943l12.848 7.582c8.653 4.811 16.227-7.834 7.759-13.149l-13.22-7.802 13.221-7.802c3.631-2.143 4.837-6.823 2.694-10.455z"/><path d="m229.407 457.797c-2.143-3.631-6.824-4.836-10.454-2.694l-12.847 7.582v-14.943c0-4.216-3.417-7.634-7.634-7.634s-7.634 3.418-7.634 7.634v14.943l-12.847-7.582c-3.628-2.142-8.31-.937-10.454 2.694-2.143 3.631-.937 8.312 2.695 10.454l13.22 7.802-13.22 7.802c-8.361 5.377-1.183 17.899 7.759 13.149l12.847-7.582v14.943c0 4.216 3.417 7.634 7.634 7.634s7.634-3.418 7.634-7.634v-14.943l12.847 7.581c8.653 4.811 16.227-7.834 7.759-13.149l-13.221-7.802 13.221-7.802c3.631-2.141 4.838-6.821 2.695-10.453z"/><path d="m285.854 173.9 10.993-6.23 24.311 7.319c9.668 2.552 13.831-11.495 4.402-14.62l-10.338-3.112 11.523-6.53c3.668-2.078 4.956-6.737 2.878-10.405-2.079-3.668-6.737-4.956-10.406-2.878l-11.522 6.529 2.641-10.466c1.031-4.088-1.446-8.238-5.535-9.27-4.083-1.031-8.237 1.445-9.27 5.534l-6.211 24.614-10.867 6.158-14.598-8.428.001-12.565 18.354-17.542c3.049-2.913 3.158-7.745.245-10.793s-7.746-3.158-10.793-.244l-7.804 7.459v-13.244c0-4.216-3.417-7.634-7.634-7.634-4.216 0-7.634 3.418-7.634 7.633l-.001 13.244-7.804-7.458c-7.686-6.753-17.366 4.096-10.548 11.037l18.352 17.539-.001 12.568-14.6 8.429-10.862-6.156-6.212-24.617c-1.032-4.088-5.182-6.564-9.27-5.534-4.088 1.031-6.565 5.182-5.535 9.27l2.642 10.467-11.522-6.531c-3.668-2.078-8.327-.791-10.405 2.877-2.079 3.668-.791 8.327 2.877 10.406l11.522 6.531-10.336 3.112c-9.635 3.47-5.133 17.135 4.401 14.62l24.308-7.318 10.993 6.231v16.037l-10.993 6.23-24.308-7.318c-4.038-1.215-8.295 1.073-9.51 5.109-1.216 4.037 1.072 8.295 5.109 9.511l10.336 3.112-11.522 6.53c-8.469 5.234-1.465 17.881 7.529 13.283l11.522-6.53-2.642 10.468c-2.087 9.911 11.956 13.224 14.805 3.735l6.211-24.617 10.853-6.151 14.609 8.434.001 12.557-18.352 17.539c-7.095 7.376 3.307 17.532 10.548 11.037l7.804-7.458.001 13.244c0 4.216 3.418 7.634 7.634 7.634s7.634-3.419 7.634-7.634v-13.244l7.804 7.459c7.598 6.77 17.408-4.084 10.548-11.037l-18.354-17.542-.001-12.554 14.608-8.434 10.857 6.152 6.211 24.615c2.851 9.831 16.858 5.788 14.805-3.735l-2.641-10.467 11.522 6.529c8.756 4.658 16.078-8.126 7.528-13.283l-11.523-6.53 10.338-3.112c4.037-1.215 6.325-5.474 5.109-9.511s-5.475-6.325-9.511-5.109l-24.311 7.319-10.993-6.23zm-15.268 16.319-14.365 8.293-14.364-8.293v-16.587l14.364-8.294 14.365 8.294z"/></g></g></svg>