<svg id="Capa_1" enable-background="new 0 0 512 512" height="512" viewBox="0 0 512 512" width="512" xmlns="http://www.w3.org/2000/svg"><g><g><path d="m223.42 98.092c14.099-45.322 56.375-78.228 106.337-78.228 60.723 0 110.088 48.61 111.315 109.04 39.86 4.182 70.928 37.892 70.928 78.86 0 40.971-31.072 75.12-70.935 79.299h.036-211.275c-52.244 0-94.596-42.352-94.596-94.596 0-50.09 38.934-91.08 88.19-94.375z" fill="#cac0c9"/><g><path d="m441.072 128.904c-1.228-60.429-50.592-109.04-111.316-109.04-21.577 0-41.713 6.148-58.772 16.772 12.468-4.828 26.019-7.482 40.192-7.482 59.293 0 107.755 46.346 111.149 104.788.142 2.446 1.979 4.425 4.399 4.811 37.806 6.038 66.696 38.794 66.696 78.3 0 27.458-13.967 51.836-35.172 66.198 31.258-10.727 53.752-40.632 53.752-75.487 0-40.968-31.068-74.677-70.928-78.86z" fill="#bbb0ba"/></g><path d="m229.496 136.783c-11.213-36.042-44.833-62.211-84.565-62.211-48.291 0-87.548 38.658-88.524 86.715-31.7 3.325-56.407 30.133-56.407 62.713 0 32.582 24.71 59.74 56.412 63.063h-.029 168.018c41.547 0 75.228-33.681 75.228-75.228 0-39.834-30.963-72.432-70.133-75.052z" fill="#f9f6f6"/><g><path d="m229.496 136.783c-11.213-36.042-44.833-62.211-84.565-62.211-17.924 0-34.596 5.334-48.536 14.489 9.356-3.363 19.441-5.199 29.955-5.199 38.581 0 71.399 24.675 83.535 59.104.658 1.868 2.332 3.18 4.3 3.397 37.611 4.161 66.864 36.043 66.864 74.763 0 25.731-12.926 48.434-32.631 61.999 29.765-10.025 51.211-38.143 51.211-71.289 0-39.835-30.963-72.433-70.133-75.053z" fill="#dfeaef"/></g><g fill="#cbe2ff"><path d="m141.836 286.998c-.889 0-76.174-.058-76.174-.058-7.872 0-14.253-6.381-14.253-14.253 0-7.871 6.381-14.253 14.253-14.253 0 0 74.298.018 74.533.018 17.366.014 33.159-12.947 34.044-30.833.306-6.171-1.81-12.091-5.958-16.671-4.147-4.58-9.83-7.27-16.001-7.576-8.609-.394-15.983 6.24-16.41 14.862-.39 7.862-7.077 13.947-14.941 13.53-7.862-.389-13.919-7.079-13.53-14.94 1.206-24.321 21.965-43.121 46.291-41.922 13.775.682 26.461 6.688 35.72 16.912 9.258 10.223 13.982 23.44 13.299 37.215-1.611 32.562-28.62 57.967-60.873 57.969z"/><path d="m114.159 492.136c-23.357 0-42.912-18.395-44.081-41.977-.389-7.861 5.668-14.551 13.53-14.94 7.864-.409 14.551 5.669 14.941 13.53.427 8.621 7.802 15.274 16.41 14.861 6.172-.306 11.854-2.996 16.002-7.576s6.263-10.5 5.958-16.671c-.429-8.664-4.206-16.643-10.637-22.467-6.43-5.823-14.744-8.791-23.407-8.365-.235.012-.47.018-.705.018h-36.508c-7.871 0-14.253-6.382-14.253-14.253s6.382-14.253 14.253-14.253h36.176c16.154-.685 31.597 4.875 43.578 15.724 12.074 10.935 19.167 25.917 19.973 42.186.682 13.775-4.041 26.992-13.3 37.215-9.259 10.224-21.945 16.23-35.72 16.912-.739.037-1.478.056-2.21.056z"/><path d="m242.534 471.612c-14.513 0-28.317-5.309-39.152-15.121-11.568-10.476-18.364-24.83-19.136-40.418-.816-16.479 6.584-32.233 19.795-42.145 6.297-4.723 15.23-3.45 19.954 2.848 4.724 6.297 3.449 15.23-2.848 19.954-5.625 4.22-8.777 10.924-8.43 17.933.395 7.983 3.876 15.334 9.8 20.699s13.58 8.087 21.566 7.707c10.929-.541 20.993-5.306 28.338-13.417s11.092-18.596 10.551-29.525c-.724-14.611-7.094-28.067-17.938-37.888s-24.853-14.026-39.474-14.107l-159.898.018c-7.871 0-14.253-6.381-14.253-14.253 0-7.871 6.382-14.253 14.253-14.253h158.855c21.961-.086 43.254 6.615 59.651 21.466 16.488 14.931 26.173 35.39 27.274 57.607.918 18.533-5.437 36.315-17.893 50.069-12.457 13.755-29.524 21.835-48.057 22.752-.988.049-1.975.074-2.958.074z"/></g><g><path d="m141.836 273.15c-.889 0-76.174-.058-76.174-.058-5.357 0-10.019-2.959-12.453-7.329-1.143 2.051-1.799 4.41-1.799 6.924 0 7.871 6.381 14.253 14.253 14.253 0 0 75.285.058 76.174.058 32.252-.002 59.262-25.407 60.875-57.968.158-3.186.014-6.339-.396-9.436-3.716 30.413-29.702 53.553-60.48 53.556z" fill="#b9cbea"/></g><g fill="#b9cbea"><path d="m102.874 408.531c8.664-.426 16.977 2.542 23.407 8.365 4.854 4.396 8.193 10.02 9.725 16.239.711-2.443 1.041-5.005.912-7.621-.429-8.664-4.206-16.643-10.637-22.467-6.43-5.822-14.744-8.791-23.407-8.365-.235.012-.47.018-.705.018h-36.507c-5.357 0-10.018-2.959-12.453-7.329-1.143 2.051-1.8 4.41-1.8 6.924 0 7.871 6.382 14.253 14.253 14.253h36.506c.236.001.471-.004.706-.017z"/><path d="m164.994 433.533c-1.361 10.293-5.786 19.927-12.904 27.787-9.259 10.224-21.945 16.23-35.72 16.912-.739.037-1.478.056-2.21.056-20.741 0-38.473-14.511-43.005-34.273-.782 1.888-1.183 3.968-1.076 6.145 1.169 23.582 20.724 41.977 44.081 41.977.732 0 1.471-.019 2.21-.056 13.776-.681 26.462-6.688 35.72-16.912 9.258-10.223 13.982-23.44 13.3-37.215-.075-1.487-.219-2.958-.396-4.421z"/></g><g fill="#b9cbea"><path d="m265.034 362.239c9.562 8.66 15.64 20.148 17.44 32.762.466-2.85.644-5.769.498-8.722-.724-14.611-7.094-28.067-17.938-37.888s-24.853-14.026-39.474-14.107l-159.898.018c-5.357 0-10.018-2.959-12.453-7.329-1.143 2.051-1.8 4.41-1.8 6.924 0 7.871 6.382 14.253 14.253 14.253l159.898-.018c14.621.081 28.631 4.286 39.474 14.107z"/><path d="m311.189 395.282c-1.453 14.702-7.539 28.504-17.639 39.656-12.457 13.755-29.524 21.835-48.057 22.752-.989.049-1.976.073-2.958.073-14.513 0-28.317-5.309-39.152-15.121-10.434-9.449-16.969-22.058-18.72-35.877-.425 3.053-.572 6.167-.416 9.307.772 15.588 7.568 29.942 19.136 40.418 10.834 9.812 24.638 15.121 39.152 15.121.983 0 1.97-.025 2.958-.074 18.534-.917 35.601-8.997 48.057-22.752 12.456-13.754 18.811-31.536 17.893-50.069-.057-1.15-.151-2.293-.254-3.434z"/></g></g><g><path d="m443.789 381.57 11.175-6.333 24.71 7.439c3.292 1.209 8.544-1.022 9.664-5.191 1.235-4.102-1.09-8.429-5.191-9.664l-10.511-3.164 11.715-6.639c3.727-2.112 5.036-6.846 2.924-10.573-2.113-3.727-6.845-5.036-10.574-2.924l-11.714 6.638 2.685-10.642c1.047-4.154-1.471-8.371-5.624-9.419-4.155-1.048-8.371 1.469-9.42 5.623l-6.312 25.018-11.046 6.26-14.839-8.567v-12.773l18.655-17.829c3.098-2.96 3.209-7.87.248-10.967-2.96-3.097-7.871-3.209-10.967-.248l-7.935 7.584v-13.465c0-4.284-3.472-7.758-7.757-7.758-4.284 0-7.757 3.473-7.757 7.757v13.465l-7.934-7.583c-3.096-2.961-8.007-2.849-10.967.248s-2.849 8.008.249 10.967l18.652 17.827-.001 12.775-14.841 8.568-11.041-6.258-6.314-25.021c-1.048-4.154-5.272-6.671-9.42-5.623-4.154 1.048-6.671 5.265-5.624 9.419l2.685 10.642-11.713-6.639c-3.726-2.113-8.461-.804-10.573 2.924-2.113 3.727-.804 8.461 2.923 10.573l11.714 6.639-10.51 3.164c-4.102 1.235-6.427 5.562-5.192 9.664 1.297 3.731 5.238 6.496 9.664 5.191l24.707-7.438 11.174 6.333v16.302l-11.174 6.333-24.708-7.438c-4.103-1.234-8.43 1.09-9.664 5.191-1.235 4.102 1.09 8.429 5.192 9.664l10.51 3.164-11.712 6.641c-3.727 2.112-5.036 6.846-2.923 10.574 2.134 3.347 6.302 5.158 10.573 2.924l11.713-6.639-2.685 10.642c-2.121 10.071 12.149 13.437 15.043 3.796l6.314-25.02 11.032-6.253 14.849 8.573.001 12.764-18.652 17.827c-3.098 2.96-3.209 7.87-.249 10.967 2.961 3.096 7.871 3.208 10.967.248l7.934-7.583v13.465c0 4.284 3.474 7.757 7.757 7.757 4.285 0 7.757-3.473 7.757-7.758v-13.465l7.935 7.584c2.755 2.552 7.603 3.113 10.967-.248 2.96-3.097 2.849-8.008-.248-10.967l-18.655-17.83v-12.762l14.849-8.573 11.037 6.255 6.312 25.018c2.897 9.989 17.13 5.882 15.043-3.796l-2.685-10.642 11.714 6.638c2.975 1.829 8.358 1.059 10.574-2.924 2.112-3.727.803-8.461-2.924-10.573l-11.715-6.639 10.511-3.164c4.102-1.235 6.427-5.562 5.191-9.664-1.235-4.102-5.562-6.426-9.664-5.191l-24.71 7.439-11.175-6.333v-16.304zm-15.514 16.588-14.602 8.43-14.601-8.43v-16.861l14.601-8.43 14.602 8.43z" fill="#cbe2ff"/></g></g></svg>