<svg id="Capa_1" enable-background="new 0 0 512 512" height="512" viewBox="0 0 512 512" width="512" xmlns="http://www.w3.org/2000/svg"><g><g><g><g><path d="m396.045 301.571c-93.805.159-172.923-74.895-177.491-168.672-2.098-43.08 11.156-82.993 34.758-114.746 6.424-8.642-1.545-20.477-11.958-17.756-92.771 24.246-161.29 108.554-161.596 208.933-.366 119.915 97.641 217.85 217.449 217.298 89.032-.41 165.355-54.628 198.196-131.833 4.179-9.824-6.427-19.329-15.824-14.275-24.881 13.385-53.32 21-83.534 21.051z" fill="#f9ef63"/></g></g><g><path d="m492.73 282.222c-34.177 73.994-108.821 125.427-195.524 125.826-116.506.536-212.384-92.066-217.243-207.443-.123 2.895-.196 5.802-.205 8.725-.366 119.915 97.641 217.85 217.449 217.298 89.032-.41 165.355-54.628 198.196-131.833 2.057-4.836.528-9.591-2.673-12.573z" fill="#f1cb86"/></g><g><path d="m233.894 354.23c-12.956-35.127-46.706-60.174-86.303-60.174-50.246 0-91.075 40.331-91.949 90.414-31.395 4.089-55.642 30.957-55.642 63.494 0 35.366 28.644 64.036 63.979 64.036h164.718c43.577 0 78.902-35.357 78.902-78.973 0-41.866-32.552-76.118-73.705-78.797z" fill="#9c8f9a"/></g><g><path d="m233.894 354.23c-12.956-35.127-46.706-60.174-86.303-60.174-18.463 0-35.651 5.451-50.056 14.825 9.819-3.58 20.419-5.535 31.475-5.535 38.5 0 71.472 23.679 85.179 57.279.714 1.751 2.337 2.961 4.217 3.158 39.679 4.148 70.611 37.723 70.611 78.535 0 27.195-13.736 51.176-34.64 65.381 30.964-10.667 53.221-40.058 53.221-74.671.001-41.867-32.551-76.119-73.704-78.798z" fill="#8c808a"/></g><g><path d="m360.598 68.422c8.387-22.738 30.233-38.951 55.865-38.951 32.525 0 58.954 26.107 59.52 58.526 20.322 2.647 36.017 20.039 36.017 41.101 0 22.893-18.542 41.451-41.414 41.451-16.726 0-88.904 0-106.624 0-28.208 0-51.074-22.887-51.074-51.12 0-27.101 21.071-49.272 47.71-51.007z" fill="#cac0c9"/></g><g><path d="m475.982 87.997c-.566-32.419-26.994-58.526-59.52-58.526-13.286 0-25.549 4.365-35.454 11.728 5.351-1.58 11.011-2.438 16.873-2.438 31.176 0 56.751 23.986 59.317 54.525.19 2.256 1.756 4.17 3.964 4.669 18.466 4.172 32.257 20.69 32.257 40.433 0 12.479-5.517 23.661-14.234 31.26 18.745-3.962 32.815-20.609 32.815-40.55 0-21.062-15.695-38.454-36.018-41.101z" fill="#bbb0ba"/></g></g></g></svg>