<svg id="Capa_1" enable-background="new 0 0 512 512" height="512" viewBox="0 0 512 512" width="512" xmlns="http://www.w3.org/2000/svg"><g><g><path d="m426.558 132.828c-43.046-1.001-77.997-36.192-78.721-79.243-.236-14.032 3.114-27.261 9.193-38.832 4.392-8.359-4.037-17.638-12.709-13.902-35.583 15.33-60.316 51.052-59.478 92.448 1.061 52.43 45.901 96.339 98.342 96.357 35.363.012 66.37-18.631 83.723-46.627 4.947-7.981-2.843-17.827-11.702-14.715-8.934 3.139-18.587 4.748-28.648 4.514z" fill="#f9ef63"/><g><path d="m463.867 129.342c-17.797 25.418-47.295 42.04-80.682 42.028-50.08-.018-93.224-40.063-97.932-89.331-.344 3.698-.487 7.454-.41 11.259 1.061 52.43 45.901 96.339 98.342 96.357 35.363.012 66.37-18.631 83.723-46.627 3.153-5.084 1.131-10.921-3.041-13.686z" fill="#f1cb86"/></g><path d="m315.92 127.269c-15.088-40.869-54.389-70.01-100.499-70.01-58.512 0-106.057 46.924-107.075 105.193-36.56 4.758-64.795 36.017-64.795 73.874 0 41.147 33.356 74.503 74.503 74.503h191.813c50.745 0 91.882-41.137 91.882-91.882-.001-48.71-37.907-88.561-85.829-91.678z" fill="#9c8f9a"/><g><path d="m315.92 127.269c-15.088-40.869-54.389-70.01-100.5-70.01-20.846 0-40.298 5.96-56.752 16.264 11.939-4.597 24.907-7.121 38.467-7.121 45.028 0 83.563 27.789 99.398 67.153.694 1.726 2.301 2.924 4.152 3.106 46.471 4.571 82.778 43.757 82.778 91.429 0 32.341-16.712 60.776-41.969 77.15 35.163-12.891 60.254-46.662 60.254-86.293 0-48.71-37.906-88.561-85.828-91.678z" fill="#8c808a"/></g></g><g><path d="m195.419 211.49-11.029 6.251-24.365-7.335c-4.038-1.214-8.296 1.072-9.511 5.109-1.216 4.038 1.073 8.295 5.109 9.511l10.393 3.129-11.578 6.562c-3.668 2.078-4.956 6.737-2.877 10.405 2.1 3.294 6.202 5.075 10.405 2.877l11.578-6.562-2.656 10.525c-2.087 9.911 11.957 13.224 14.805 3.735l6.226-24.675 10.888-6.171 14.655 8.461v12.597l-18.395 17.581c-3.049 2.913-3.158 7.745-.244 10.793 2.912 3.049 7.745 3.158 10.793.245l7.847-7.499v13.308c0 4.217 3.418 7.634 7.634 7.634 4.217 0 7.634-3.418 7.634-7.634v-13.308l7.847 7.499c2.713 2.512 7.482 3.064 10.793-.245 2.913-3.048 2.804-7.88-.244-10.793l-18.396-17.582v-12.596l14.653-8.46 10.893 6.173 6.226 24.671c2.851 9.831 16.858 5.788 14.805-3.735l-2.655-10.523 11.577 6.561c2.928 1.798 8.225 1.041 10.406-2.878 2.079-3.669.79-8.327-2.878-10.406l-11.577-6.561 10.392-3.129c4.037-1.216 6.325-5.473 5.109-9.511-1.217-4.037-5.476-6.324-9.511-5.109l-24.366 7.335-11.031-6.251v-16.089l11.03-6.251 24.367 7.336c3.24 1.189 8.408-1.005 9.511-5.109 1.216-4.038-1.073-8.295-5.109-9.511l-10.394-3.129 11.579-6.562c3.668-2.079 4.956-6.737 2.878-10.406-2.079-3.667-6.736-4.953-10.406-2.878l-11.576 6.561 2.655-10.522c1.031-4.087-1.446-8.238-5.535-9.27-4.082-1.028-8.237 1.445-9.27 5.535l-6.226 24.671-10.903 6.179-14.643-8.454v-12.607l18.396-17.582c3.048-2.914 3.158-7.745.244-10.793-2.913-3.05-7.746-3.159-10.793-.245l-7.847 7.499v-13.307c0-4.216-3.417-7.634-7.634-7.634-4.215 0-7.634 3.418-7.634 7.634v13.307l-7.847-7.499c-3.049-2.913-7.88-2.805-10.793.245-2.913 3.048-2.804 7.88.244 10.793l18.395 17.58v12.609l-14.646 8.455-10.897-6.176-6.226-24.674c-1.032-4.088-5.181-6.564-9.27-5.535-4.088 1.032-6.565 5.182-5.535 9.27l2.656 10.524-11.578-6.562c-3.667-2.079-8.328-.791-10.405 2.877-2.08 3.668-.791 8.327 2.877 10.405l11.579 6.563-10.394 3.129c-4.037 1.216-6.325 5.473-5.109 9.511 1.276 3.671 5.155 6.393 9.511 5.109l24.366-7.335 11.028 6.251v16.088zm15.268-16.359 14.41-8.319 14.409 8.319v16.64l-14.409 8.319-14.41-8.319z" fill="#f9ef63"/><g fill="#cbe2ff"><path d="m252.258 400.614c2.143-3.63.936-8.311-2.695-10.454l-13.271-7.832 13.271-7.832c3.631-2.143 4.838-6.824 2.695-10.454-2.143-3.632-6.825-4.836-10.454-2.695l-12.897 7.612v-15.001c0-4.217-3.417-7.634-7.634-7.634s-7.634 3.417-7.634 7.634v15l-12.896-7.611c-3.628-2.141-8.31-.937-10.454 2.695-2.143 3.63-.936 8.311 2.695 10.454l13.271 7.832-13.271 7.832c-3.631 2.143-4.838 6.824-2.695 10.454 2.183 3.272 6.245 4.959 10.454 2.695l12.896-7.611v15c0 4.216 3.417 7.634 7.634 7.634s7.634-3.418 7.634-7.634v-15.001l12.897 7.612c2.874 1.839 8.221 1.193 10.454-2.695z"/><path d="m136.512 400.614c2.143-3.63.936-8.311-2.695-10.454l-13.27-7.832 13.27-7.832c3.631-2.143 4.838-6.824 2.695-10.454-2.143-3.632-6.825-4.836-10.454-2.695l-12.896 7.611v-15.001c0-4.217-3.418-7.634-7.634-7.634-4.217 0-7.634 3.417-7.634 7.634v15.001l-12.896-7.611c-3.628-2.141-8.309-.937-10.454 2.695-2.143 3.63-.936 8.311 2.695 10.454l13.27 7.832-13.27 7.832c-3.631 2.143-4.838 6.824-2.695 10.454 2.183 3.272 6.244 4.959 10.454 2.695l12.896-7.611v15.001c0 4.216 3.417 7.634 7.634 7.634 4.216 0 7.634-3.418 7.634-7.634v-15.001l12.896 7.611c2.874 1.839 8.221 1.193 10.454-2.695z"/><path d="m368.003 364.042c-2.143-3.632-6.824-4.836-10.454-2.695l-12.896 7.611v-15.001c0-4.217-3.417-7.634-7.634-7.634-4.216 0-7.634 3.417-7.634 7.634v15.001l-12.896-7.611c-3.628-2.141-8.31-.937-10.454 2.695-2.143 3.63-.936 8.311 2.695 10.454l13.27 7.832-13.27 7.832c-3.631 2.143-4.838 6.824-2.695 10.454 2.183 3.272 6.244 4.959 10.454 2.695l12.896-7.611v15.001c0 4.216 3.417 7.634 7.634 7.634s7.634-3.418 7.634-7.634v-15.001l12.896 7.611c2.874 1.84 8.222 1.193 10.454-2.695 2.143-3.63.936-8.311-2.695-10.454l-13.27-7.832 13.27-7.832c3.631-2.143 4.838-6.824 2.695-10.454z"/><path d="m310.13 457.71c-2.144-3.632-6.823-4.837-10.454-2.695l-12.896 7.611v-15.001c0-4.216-3.417-7.634-7.634-7.634s-7.634 3.418-7.634 7.634v15.001l-12.897-7.611c-3.628-2.142-8.31-.938-10.454 2.695-2.143 3.63-.936 8.311 2.695 10.454l13.271 7.832-13.271 7.832c-3.631 2.143-4.838 6.824-2.695 10.454 2.184 3.272 6.245 4.959 10.454 2.695l12.897-7.611v15.001c0 4.216 3.417 7.634 7.634 7.634s7.634-3.417 7.634-7.634v-15.001l12.896 7.611c2.874 1.84 8.221 1.193 10.454-2.695 2.143-3.63.936-8.311-2.695-10.454l-13.271-7.832 13.271-7.832c3.632-2.143 4.838-6.824 2.695-10.454z"/><path d="m194.385 457.71c-2.143-3.632-6.824-4.837-10.454-2.695l-12.897 7.611v-15.001c0-4.216-3.417-7.634-7.634-7.634s-7.634 3.418-7.634 7.634v15.001l-12.896-7.611c-3.628-2.142-8.31-.938-10.454 2.695-2.143 3.63-.936 8.311 2.695 10.454l13.27 7.832-13.27 7.832c-3.631 2.143-4.838 6.824-2.695 10.454 2.184 3.272 6.244 4.959 10.454 2.695l12.896-7.611v15.001c0 4.216 3.417 7.634 7.634 7.634s7.634-3.417 7.634-7.634v-15.001l12.897 7.611c2.874 1.84 8.222 1.193 10.454-2.695 2.143-3.63.936-8.311-2.695-10.454l-13.271-7.832 13.271-7.832c3.632-2.143 4.838-6.824 2.695-10.454z"/></g></g></g></svg>