<svg id="Capa_1" enable-background="new 0 0 512 512" height="512" viewBox="0 0 512 512" width="512" xmlns="http://www.w3.org/2000/svg"><g><g><path d="m62.724 55.558c10.028-32.188 40.097-55.558 75.631-55.558 43.189 0 78.299 34.523 79.172 77.44 28.35 2.97 50.447 26.911 50.447 56.006 0 29.097-22.244 56.319-50.452 56.319h-150.241c-37.159.001-67.281-30.078-67.281-67.182 0-35.574 27.692-64.685 62.724-67.025z" fill="#f9f6f6"/><path d="m217.528 77.44c-.17-8.371-1.659-16.415-4.24-23.954-71.085 16.418-128.566 68.284-152.791 135.94 2.231.223 4.494.339 6.784.339h150.242c28.208 0 50.452-27.221 50.452-56.319 0-29.095-22.097-53.035-50.447-56.006z" fill="#dfeaef"/><ellipse cx="261.598" cy="261.214" fill="#ffe9a1" rx="193.349" ry="193.066"/><path d="m261.598 68.148c-3.115 0-6.211.081-9.29.226 102.469 4.841 184.059 89.323 184.059 192.84s-81.59 187.999-184.059 192.84c3.079.145 6.175.226 9.29.226 106.784 0 193.349-86.439 193.349-193.066s-86.565-193.066-193.349-193.066z" fill="#ffdc78"/><g fill="#f1cb86"><ellipse cx="226.158" cy="348.862" rx="25.011" ry="24.974"/><ellipse cx="310.409" cy="235.621" rx="25.011" ry="24.974"/><path d="m123.721 340.255c-12.551 0-23.77 5.678-31.233 14.598 13.177 23.677 31.19 44.297 52.715 60.527 11.528-7.172 19.204-19.937 19.204-34.499-.001-22.437-18.216-40.626-40.686-40.626z"/><ellipse cx="151.688" cy="260.595" rx="41.052" ry="40.992"/></g><path d="m459.049 398.704c-8.465-27.172-33.849-46.901-63.847-46.901-36.46 0-66.099 29.144-66.836 65.374-23.933 2.507-42.587 22.718-42.587 47.28 0 24.564 18.778 47.543 42.591 47.543h126.832c31.369 0 56.798-25.392 56.798-56.714 0-30.031-23.377-54.606-52.951-56.582z" fill="#f9f6f6"/><g><path d="m459.049 398.704c-8.465-27.172-33.849-46.901-63.847-46.901-14.475 0-27.866 4.606-38.809 12.414 6.383-2.022 13.176-3.123 20.229-3.123 28.864 0 53.456 18.266 62.815 43.853.671 1.833 2.312 3.115 4.249 3.354 28.034 3.473 49.733 27.342 49.733 56.275 0 18.46-8.838 34.854-22.513 45.21 23.727-6.804 41.094-28.62 41.094-54.5 0-30.031-23.377-54.606-52.951-56.582z" fill="#dfeaef"/></g></g><g fill="#f1cb86"><path d="m275.801 394.969c-7.008 0-12.708 5.699-12.708 12.702 0 7.004 5.701 12.701 12.708 12.701 7.008 0 12.709-5.698 12.709-12.701s-5.701-12.702-12.709-12.702z"/><path d="m182.253 157.522c0-7.004-5.702-12.702-12.709-12.702s-12.709 5.699-12.709 12.702 5.702 12.701 12.709 12.701 12.709-5.697 12.709-12.701z"/></g></g></svg>