<svg id="Capa_1" enable-background="new 0 0 512 512" height="512" viewBox="0 0 512 512" width="512" xmlns="http://www.w3.org/2000/svg"><g><g><ellipse cx="158.027" cy="212.996" fill="#f9ef63" rx="88.279" ry="88.279" transform="matrix(.707 -.707 .707 .707 -104.326 174.127)"/><path d="m151.846 271.915c-13.106 4.018-25.06 10.551-35.36 18.99 12.87 6.877 27.64 10.663 43.322 10.353 47.912-.945 86.625-40.581 86.497-88.503-.051-19.172-6.218-36.903-16.647-51.356-11.989 6.386-23.121 14.532-33.06 24.31-22.703 22.335-37.021 51.019-41.259 82.1-.262 1.929-1.632 3.535-3.493 4.106z" fill="#f1cb86"/><path d="m412.811 244.79c-17.437-47.231-62.856-80.908-116.144-80.908-67.62 0-122.566 54.229-123.742 121.568-42.251 5.499-74.882 41.624-74.882 85.373 0 47.552 38.549 86.1 86.101 86.1h221.672c58.644 0 106.184-47.54 106.184-106.184 0-56.293-43.807-102.347-99.189-105.949z" fill="#f9f6f6"/><g><path d="m412.811 244.79c-17.437-47.231-62.856-80.908-116.144-80.908-23.523 0-45.509 6.568-64.235 17.963 14.208-5.685 29.711-8.82 45.95-8.82 52.194 0 96.84 32.309 115.035 78.018.695 1.746 2.317 2.959 4.189 3.136 53.917 5.076 96.109 50.459 96.109 105.704 0 37.942-19.904 71.23-49.837 90.008 39.841-15.305 68.122-53.923 68.122-99.152 0-56.293-43.807-102.347-99.189-105.949z" fill="#dfeaef"/></g></g><g fill="#f9ef63"><path d="m37.976 204.967h-30.342c-4.216 0-7.634 3.417-7.634 7.633s3.418 7.634 7.634 7.634h30.342c4.216 0 7.634-3.418 7.634-7.634s-3.418-7.633-7.634-7.633z"/><path d="m157.523 100.687c4.216 0 7.634-3.418 7.634-7.634v-30.342c0-4.216-3.418-7.634-7.634-7.634s-7.634 3.418-7.634 7.634v30.342c0 4.216 3.418 7.634 7.634 7.634z"/><path d="m242.271 135.791c1.954 0 3.907-.745 5.398-2.236l21.455-21.455c2.982-2.981 2.982-7.815 0-10.796-2.981-2.981-7.815-2.981-10.796 0l-21.455 21.455c-2.981 2.981-2.981 7.815 0 10.796 1.491 1.49 3.445 2.236 5.398 2.236z"/><path d="m67.378 292.254-21.455 21.455c-2.981 2.981-2.981 7.815 0 10.796 2.636 2.556 7.442 3.241 10.796 0l21.455-21.455c2.981-2.981 2.981-7.815 0-10.796s-7.815-2.981-10.796 0z"/><path d="m67.378 133.555c2.636 2.556 7.442 3.241 10.796 0 2.981-2.981 2.981-7.815 0-10.796l-21.455-21.455c-2.981-2.981-7.815-2.981-10.796 0s-2.981 7.815 0 10.796z"/></g></g></svg>