<svg id="Capa_1" enable-background="new 0 0 512 512" height="512" viewBox="0 0 512 512" width="512" xmlns="http://www.w3.org/2000/svg"><g><g><path d="m309.238 414.144c10.911 5.312 24.063.772 29.375-10.139 6.078-12.485.993-29.86-2.003-37.926-.964-2.596-3.784-3.97-6.422-3.128-8.196 2.617-25.011 9.332-31.089 21.818-5.312 10.912-.772 24.063 10.139 29.375z" fill="#cbe2ff"/><path d="m330.206 362.946c-3.023.965-7.225 2.489-11.628 4.656 3.008 8.575 7.177 24.65 1.455 36.403-2.294 4.711-6.052 8.227-10.457 10.282 10.845 5.06 23.78.518 29.038-10.282 6.078-12.485.994-29.86-2.003-37.926-.963-2.59-3.773-3.973-6.405-3.133z" fill="#b9cbea"/><path d="m250.264 509.778c10.911 5.312 24.063.772 29.375-10.139 6.078-12.485.993-29.86-2.003-37.926-.964-2.596-3.784-3.97-6.422-3.128-8.196 2.617-25.011 9.333-31.089 21.819-5.312 10.911-.772 24.063 10.139 29.374z" fill="#cbe2ff"/><path d="m271.232 458.58c-3.023.965-7.225 2.489-11.628 4.656 3.008 8.575 7.177 24.651 1.455 36.404-2.293 4.711-6.052 8.227-10.457 10.282 10.845 5.06 23.78.518 29.038-10.282 6.078-12.485.994-29.86-2.002-37.926-.964-2.591-3.774-3.974-6.406-3.134z" fill="#b9cbea"/><path d="m206.801 414.144c10.911 5.312 24.063.772 29.375-10.139 6.078-12.485.993-29.86-2.003-37.926-.964-2.596-3.784-3.97-6.422-3.128-8.196 2.617-25.011 9.332-31.089 21.818-5.312 10.912-.772 24.063 10.139 29.375z" fill="#cbe2ff"/><path d="m227.769 362.946c-3.023.965-7.225 2.489-11.628 4.656 3.008 8.575 7.177 24.65 1.455 36.403-2.294 4.711-6.052 8.227-10.457 10.282 10.844 5.06 23.78.518 29.038-10.282 6.078-12.485.994-29.86-2.002-37.926-.964-2.59-3.774-3.973-6.406-3.133z" fill="#b9cbea"/><path d="m147.827 509.778c10.911 5.312 24.063.772 29.375-10.139 6.078-12.485.993-29.86-2.003-37.926-.964-2.596-3.784-3.97-6.422-3.128-8.196 2.617-25.01 9.333-31.089 21.819-5.312 10.911-.772 24.063 10.139 29.374z" fill="#cbe2ff"/><path d="m168.795 458.58c-3.023.965-7.225 2.489-11.628 4.656 3.008 8.575 7.177 24.651 1.455 36.404-2.293 4.711-6.052 8.227-10.457 10.282 10.844 5.06 23.78.518 29.038-10.282 6.078-12.485.994-29.86-2.003-37.926-.963-2.591-3.773-3.974-6.405-3.134z" fill="#b9cbea"/><path d="m104.364 414.144c10.911 5.312 24.063.772 29.375-10.139 6.078-12.485.993-29.86-2.003-37.926-.964-2.596-3.784-3.97-6.422-3.128-8.196 2.617-25.011 9.332-31.089 21.818-5.312 10.912-.772 24.063 10.139 29.375z" fill="#cbe2ff"/><path d="m125.332 362.946c-3.023.965-7.225 2.489-11.628 4.656 3.008 8.575 7.177 24.65 1.455 36.403-2.294 4.711-6.052 8.227-10.458 10.282 10.844 5.06 23.78.518 29.038-10.282 6.078-12.485.994-29.86-2.002-37.926-.963-2.59-3.773-3.973-6.405-3.133z" fill="#b9cbea"/><path d="m429.243 134.92c-43.724-1.016-79.225-36.761-79.96-80.491-.24-14.253 3.163-27.69 9.338-39.444 4.461-8.491-4.101-17.916-12.91-14.121-36.143 15.571-61.265 51.855-60.414 93.903 1.078 53.255 46.624 97.855 99.89 97.874 35.92.013 67.415-18.924 85.041-47.361 5.025-8.107-2.887-18.108-11.886-14.947-9.074 3.189-18.88 4.824-29.099 4.587z" fill="#f9ef63"/><g><path d="m467.136 131.376c-18.077 25.815-48.038 42.697-81.949 42.685-50.867-.018-94.689-40.692-99.473-90.734-.349 3.757-.495 7.574-.416 11.44 1.078 53.255 46.624 97.855 99.89 97.874 35.92.013 67.415-18.924 85.041-47.361 3.202-5.166 1.146-11.096-3.093-13.904z" fill="#f1cb86"/></g><path d="m316.863 129.272c-15.325-41.512-55.245-71.112-102.081-71.112-59.433 0-107.726 47.663-108.76 106.849-37.135 4.833-65.815 36.584-65.815 75.037 0 41.795 33.881 75.676 75.676 75.676h194.833c51.544 0 93.328-41.784 93.328-93.328-.001-49.478-38.504-89.955-87.181-93.122z" fill="#9c8f9a"/><g><path d="m316.863 129.272c-15.325-41.512-55.245-71.112-102.081-71.112-21.176 0-40.936 6.055-57.65 16.522 12.126-4.669 25.297-7.232 39.069-7.232 45.737 0 84.878 28.227 100.962 68.209.706 1.754 2.338 2.971 4.219 3.157 47.201 4.644 84.08 44.446 84.08 92.868 0 32.849-16.974 61.731-42.626 78.363 35.719-13.093 61.207-47.396 61.207-87.653 0-49.478-38.503-89.955-87.18-93.122z" fill="#8c808a"/></g></g></g></svg>