<svg id="Capa_1" enable-background="new 0 0 512 512" height="512" viewBox="0 0 512 512" width="512" xmlns="http://www.w3.org/2000/svg"><g><g><path d="m444.56 146.848c-47.589-1.106-86.23-40.012-87.029-87.607-.261-15.514 3.443-30.138 10.163-42.931 4.855-9.242-4.463-19.499-14.051-15.369-39.339 16.948-66.682 56.44-65.755 102.205 1.174 57.964 50.745 106.507 108.721 106.527 39.095.014 73.375-20.598 92.56-51.548 5.469-8.824-3.143-19.709-12.937-16.268-9.877 3.47-20.55 5.25-31.672 4.991z" fill="#f9ef63"/><g><path d="m486.557 143.536c-19.59 28.715-52.562 47.57-89.948 47.557-55.625-.019-103.505-44.709-108.334-99.527-.323 3.809-.466 7.67-.387 11.581 1.174 57.964 50.745 106.507 108.721 106.527 39.095.014 73.375-20.597 92.56-51.548 3.29-5.308 1.481-11.358-2.612-14.59z" fill="#f1cb86"/></g><path d="m322.244 140.702c-16.68-45.182-60.13-77.399-111.107-77.399-64.687 0-117.251 51.876-118.376 116.295-40.419 5.26-71.634 39.819-71.634 81.671 0 45.49 36.877 82.366 82.366 82.366h212.058c56.101 0 101.579-45.479 101.579-101.579.002-53.852-41.906-97.908-94.886-101.354z" fill="#9c8f9a"/><g><path d="m322.244 140.702c-16.68-45.182-60.13-77.399-111.107-77.399-22.711 0-43.922 6.401-61.942 17.487 13.428-5.289 28.055-8.197 43.362-8.197 49.877 0 92.548 30.842 109.99 74.493.705 1.764 2.357 2.977 4.248 3.158 51.491 4.942 91.756 48.316 91.756 101.102 0 36.071-18.803 67.748-47.141 85.771 38.404-14.494 65.722-51.585 65.722-95.062 0-53.851-41.908-97.907-94.888-101.353z" fill="#8c808a"/></g><path d="m179.417 508.601 86.601-127.445c2.328-3.427-.126-8.062-4.269-8.062h-38.642l34.722-73.946c1.607-3.423-.891-7.355-4.672-7.355h-51.902c-2.142 0-4.062 1.323-4.824 3.325l-40.601 106.674c-1.286 3.378 1.209 6.997 4.824 6.997h31.726c3.583 0 6.076 3.561 4.85 6.927l-31.307 85.977c-3.079 8.454 8.438 14.348 13.494 6.908z" fill="#f9ef63"/><g fill="#f1cb86"><path d="m223.107 373.093 34.722-73.946c1.607-3.423-.891-7.355-4.672-7.355h-10.455l-34.722 73.946c-1.607 3.423.89 7.355 4.672 7.355z"/><path d="m252.916 373.093-86.54 127.355-.454 1.246c-3.078 8.452 8.439 14.346 13.495 6.906l86.601-127.445c2.328-3.427-.126-8.062-4.269-8.062z"/></g></g></g></svg>