<svg id="Capa_1" enable-background="new 0 0 512 512" height="512" viewBox="0 0 512 512" width="512" xmlns="http://www.w3.org/2000/svg"><g><g><g fill="#ffe9a1"><path d="m418.802 116.642 1.862.835c8.509 3.814 15.318 10.624 19.132 19.133l.835 1.863c2.256 5.035 9.403 5.035 11.66 0l.835-1.862c3.814-8.509 10.623-15.319 19.132-19.133l1.862-.835c5.034-2.257 5.034-9.404 0-11.66l-1.862-.835c-8.509-3.814-15.319-10.624-19.132-19.133l-.835-1.862c-2.256-5.035-9.403-5.035-11.66 0l-.835 1.863c-3.814 8.509-10.623 15.319-19.132 19.133l-1.862.835c-5.034 2.254-5.034 9.401 0 11.658z"/><path d="m345.854 228.951 1.599.717c7.306 3.275 13.153 9.122 16.428 16.429l.717 1.6c1.937 4.323 8.074 4.323 10.012 0l.717-1.599c3.275-7.307 9.122-13.154 16.428-16.429l1.599-.717c4.323-1.938 4.323-8.075 0-10.012l-1.599-.717c-7.307-3.275-13.154-9.122-16.428-16.429l-.717-1.599c-1.937-4.323-8.074-4.323-10.012 0l-.717 1.6c-3.275 7.307-9.122 13.154-16.428 16.429l-1.599.717c-4.323 1.935-4.323 8.072 0 10.01z"/><path d="m279.183 95.845 1.599.717c7.306 3.275 13.153 9.122 16.428 16.429l.717 1.599c1.937 4.323 8.074 4.323 10.012 0l.717-1.599c3.275-7.307 9.122-13.154 16.428-16.429l1.599-.717c4.323-1.938 4.323-8.075 0-10.012l-1.599-.717c-7.306-3.275-13.154-9.122-16.428-16.429l-.717-1.599c-1.937-4.323-8.074-4.323-10.012 0l-.717 1.599c-3.275 7.307-9.122 13.154-16.428 16.429l-1.599.717c-4.323 1.937-4.323 8.075 0 10.012z"/></g><g><path d="m385.722 361.916c-112.676.191-207.711-89.881-213.198-202.424-2.521-51.701 13.401-99.6 41.751-137.707 7.716-10.371-1.856-24.575-14.364-21.309-111.433 29.098-193.736 130.276-194.104 250.741-.439 143.91 117.284 261.442 261.193 260.78 106.942-.492 198.62-65.559 238.068-158.213 5.02-11.79-7.72-23.197-19.007-17.131-29.887 16.063-64.047 25.202-100.339 25.263z" fill="#f9ef63"/></g><g><path d="m267 493.417c-140.565.646-256.126-111.478-261.012-250.8-.102 2.856-.172 5.721-.181 8.599-.439 143.911 117.284 261.443 261.193 260.781 106.942-.492 198.62-65.559 238.068-158.213 2.21-5.19.976-10.303-2.057-13.887-40.511 90.15-130.884 153.036-236.011 153.52z" fill="#f1cb86"/></g></g></g></svg>