<svg id="Capa_1" enable-background="new 0 0 512 512" height="512" viewBox="0 0 512 512" width="512" xmlns="http://www.w3.org/2000/svg"><g><g><g><path d="m372.279 87.281c-18.81-50.951-67.806-87.281-125.291-87.281-72.946 0-132.22 58.5-133.489 131.143-45.579 5.931-80.779 44.902-80.779 92.097 0 51.297 41.585 92.882 92.882 92.882h239.131c63.263 0 114.547-51.285 114.547-114.548 0-60.726-47.257-110.407-107.001-114.293z" fill="#f9f6f6"/><g><path d="m372.279 87.281c-18.81-50.951-67.806-87.281-125.291-87.281-25.158 0-48.689 6.961-68.776 19.058 15.497-6.293 32.439-9.768 50.196-9.768 56.373 0 104.583 34.938 124.166 84.34.704 1.775 2.355 3.011 4.257 3.187 58.255 5.386 103.87 54.386 103.87 114.047 0 41.168-21.721 77.257-54.324 97.448 42.672-16.661 72.905-58.167 72.905-106.738-.002-60.726-47.259-110.407-107.003-114.293z" fill="#dfeaef"/></g><path d="m336.983 414.344c10.889 5.301 24.014.771 29.315-10.118 6.063-12.455.995-29.786-1.995-37.84-.964-2.596-3.784-3.971-6.422-3.128-8.183 2.614-24.952 9.315-31.016 21.771-5.301 10.889-.771 24.014 10.118 29.315z" fill="#cbe2ff"/><path d="m357.898 363.253c-3.024.965-7.225 2.49-11.627 4.659 3.001 8.561 7.153 24.592 1.447 36.314-2.286 4.695-6.03 8.2-10.419 10.253 10.827 5.065 23.749.533 29-10.253 6.063-12.454.995-29.786-1.995-37.839-.963-2.591-3.774-3.975-6.406-3.134z" fill="#b9cbea"/><path d="m278.13 509.783c10.889 5.301 24.014.771 29.315-10.118 6.063-12.455.995-29.786-1.995-37.84-.964-2.596-3.784-3.971-6.422-3.128-8.183 2.614-24.952 9.315-31.016 21.771-5.302 10.889-.771 24.014 10.118 29.315z" fill="#cbe2ff"/><path d="m299.044 458.692c-3.024.965-7.226 2.49-11.627 4.659 3.001 8.561 7.153 24.592 1.447 36.314-2.286 4.695-6.03 8.2-10.419 10.253 10.827 5.065 23.749.533 29-10.253 6.063-12.455.995-29.786-1.995-37.839-.962-2.591-3.773-3.975-6.406-3.134z" fill="#b9cbea"/><path d="m234.755 414.344c10.889 5.301 24.014.771 29.315-10.118 6.063-12.455.995-29.786-1.995-37.84-.964-2.596-3.784-3.971-6.422-3.128-8.183 2.614-24.952 9.315-31.016 21.771-5.301 10.889-.771 24.014 10.118 29.315z" fill="#cbe2ff"/><path d="m255.67 363.253c-3.024.965-7.225 2.49-11.627 4.659 3.002 8.561 7.153 24.592 1.447 36.314-2.286 4.695-6.03 8.2-10.419 10.253 10.827 5.065 23.749.533 29-10.253 6.063-12.454.995-29.786-1.995-37.839-.963-2.591-3.774-3.975-6.406-3.134z" fill="#b9cbea"/><path d="m175.902 509.783c10.889 5.301 24.014.771 29.315-10.118 6.063-12.455.995-29.786-1.995-37.84-.964-2.596-3.784-3.971-6.422-3.128-8.183 2.614-24.952 9.315-31.016 21.771-5.301 10.889-.771 24.014 10.118 29.315z" fill="#cbe2ff"/><path d="m196.816 458.692c-3.024.965-7.225 2.49-11.627 4.659 3.001 8.561 7.153 24.592 1.447 36.314-2.286 4.695-6.03 8.2-10.419 10.253 10.827 5.065 23.749.533 29-10.253 6.063-12.455.995-29.786-1.995-37.84-.962-2.59-3.773-3.974-6.406-3.133z" fill="#b9cbea"/><path d="m132.527 414.344c10.889 5.301 24.014.771 29.315-10.118 6.063-12.455.995-29.786-1.995-37.84-.964-2.596-3.784-3.971-6.422-3.128-8.183 2.614-24.952 9.315-31.016 21.771-5.301 10.889-.771 24.014 10.118 29.315z" fill="#cbe2ff"/><path d="m153.442 363.253c-3.024.965-7.225 2.49-11.627 4.659 3.001 8.561 7.153 24.592 1.447 36.314-2.286 4.695-6.03 8.2-10.419 10.253 10.827 5.065 23.749.533 29-10.253 6.063-12.454.995-29.785-1.995-37.839-.963-2.591-3.774-3.975-6.406-3.134z" fill="#b9cbea"/></g></g></g></svg>