<svg id="Capa_1" enable-background="new 0 0 512 512" height="512" viewBox="0 0 512 512" width="512" xmlns="http://www.w3.org/2000/svg"><g><g><path d="m481.439 295.142c-2.813-9.34-12.664-14.633-22.001-11.82l-77.989 23.479-39.463-22.363v-56.873l39.464-22.364 77.988 23.479c1.697.51 3.411.754 5.098.754 7.59 0 14.603-4.932 16.903-12.574 2.813-9.34-2.48-19.19-11.819-22.002l-45.662-13.746 48.104-27.261c8.485-4.809 11.465-15.587 6.657-24.072-4.808-8.486-15.586-11.466-24.073-6.658l-48.102 27.259 11.667-46.232c2.385-9.457-3.346-19.058-12.804-21.445-9.453-2.382-19.057 3.345-21.444 12.803l-19.925 78.963-39.015 22.11-51.367-29.656.001-45.109 58.88-56.273c7.052-6.738 7.304-17.917.566-24.969-6.74-7.052-17.921-7.304-24.969-.565l-34.474 32.948.002-55.292c-.002-9.756-7.908-17.663-17.662-17.663-9.753 0-17.66 7.907-17.66 17.66l-.002 55.29-34.471-32.945c-7.05-6.74-18.23-6.487-24.969.565-6.738 7.051-6.486 18.23.566 24.969l58.872 56.267-.001 45.116-51.372 29.659-38.999-22.104-19.928-78.972c-2.385-9.455-11.979-15.185-21.444-12.803-9.457 2.387-15.189 11.988-12.803 21.445l11.667 46.237-48.102-27.264c-8.483-4.811-19.263-1.831-24.072 6.656-4.809 8.485-1.83 19.263 6.656 24.072l48.1 27.262-45.658 13.746c-9.34 2.812-14.631 12.662-11.82 22.002 2.302 7.643 9.314 12.574 16.904 12.574 1.686 0 3.401-.243 5.098-.754l77.981-23.476 39.462 22.366v56.865l-39.461 22.366-77.981-23.477c-9.342-2.81-19.19 2.481-22.002 11.82-2.811 9.34 2.48 19.19 11.82 22.002l45.659 13.746-48.101 27.262c-8.486 4.809-11.466 15.587-6.656 24.072 3.25 5.735 9.227 8.956 15.38 8.956 2.95 0 5.941-.741 8.691-2.3l48.102-27.263-11.667 46.237c-2.386 9.457 3.346 19.058 12.803 21.445 1.451.366 2.904.541 4.334.541 7.897 0 15.091-5.337 17.11-13.344l19.927-78.971 38.971-22.087 51.401 29.677.001 45.081-58.872 56.266c-7.052 6.739-7.304 17.918-.566 24.969 6.74 7.052 17.921 7.303 24.969.566l34.471-32.945.002 55.289c0 9.753 7.908 17.66 17.66 17.66 9.755 0 17.66-7.908 17.66-17.661l-.002-55.291 34.474 32.948c3.422 3.269 7.814 4.893 12.2 4.893 4.653 0 9.299-1.828 12.769-5.459 6.738-7.051 6.486-18.23-.566-24.969l-58.88-56.273-.001-45.075 51.396-29.674 38.987 22.094 19.925 78.963c2.021 8.007 9.213 13.344 17.11 13.344 1.431 0 2.885-.175 4.334-.541 9.458-2.387 15.189-11.988 12.804-21.445l-11.667-46.232 48.102 27.259c2.751 1.558 5.741 2.299 8.692 2.299 6.152 0 12.129-3.221 15.38-8.957 4.808-8.485 1.828-19.263-6.657-24.072l-48.104-27.261 45.662-13.746c9.341-2.813 14.634-12.663 11.821-22.003zm-174.774-9.871-50.67 29.254-50.669-29.254v-58.508l50.669-29.253 50.67 29.253z" fill="#cbe2ff"/><g fill="#b9cbea"><path d="m185.286 40.005 44.324 42.361c3.284 3.138 8.727.811 8.727-3.731v-5.686l-34.471-32.944c-5.939-5.678-14.799-6.373-21.476-2.242 1.021.634 1.993 1.379 2.896 2.242z"/><path d="m205.326 285.271v-58.508l50.674-29.254-6.71-3.874c-1.597-.922-3.564-.922-5.161 0l-54.803 31.638c-1.597.922-2.581 2.626-2.581 4.47v52.548c0 1.844.984 3.548 2.581 4.47l54.798 31.638c1.597.922 3.564.922 5.161 0l6.71-3.874z"/><path d="m255.079 17.661.777 59.345c.057 4.37 5.18 6.695 8.507 3.862l9.296-7.916.001-55.292c0-9.753-7.906-17.66-17.66-17.66-3.413 0-6.589.985-9.29 2.661 5.017 3.116 8.369 8.66 8.369 15z"/><path d="m109.455 95.504 19.388 76.833c.345 1.366 1.233 2.533 2.459 3.227l43.887 24.875c1.591.902 3.542.894 5.126-.02l6.647-3.838-38.999-22.105-19.928-78.972c-2.385-9.455-11.979-15.185-21.444-12.803-1.807.456-3.475 1.179-4.98 2.111 3.769 2.328 6.675 6.058 7.844 10.692z"/><path d="m314.521 40.57c6.738 7.051 6.486 18.23-.566 24.969l-57.284 54.749c-1.019.974-1.595 2.322-1.595 3.731l-.001 29.382c0 1.86 1.001 3.577 2.62 4.492l15.96 9.028.001-45.109 58.88-56.273c7.052-6.738 7.304-17.917.566-24.969-5.877-6.149-15.128-7.124-22.074-2.807 1.249.773 2.431 1.695 3.493 2.807z"/><path d="m381.449 306.801-39.463-22.363v-56.873l39.463-22.364-10.022-3.017c-1.349-.406-2.806-.243-4.033.452l-41.373 23.447c-1.617.917-2.617 2.632-2.617 4.49v50.858c0 1.859 1 3.574 2.617 4.49l41.373 23.446c1.226.695 2.683.858 4.033.452z"/><path d="m399.631 104.146-11.815 46.814c-1.111 4.404 3.597 7.993 7.549 5.753l11.178-6.335 11.668-46.233c2.385-9.457-3.346-19.058-12.804-21.445-4.821-1.215-9.676-.311-13.599 2.112 6.369 3.945 9.752 11.685 7.823 19.334z"/><path d="m273.657 390.188-.001-45.075-16.245 10.627c-1.457.953-2.336 2.578-2.336 4.319l.001 27.922c0 1.409.576 2.757 1.595 3.731l57.284 54.748c7.052 6.739 7.304 17.918.566 24.969-1.061 1.11-2.242 2.031-3.49 2.804 2.845 1.768 6.074 2.655 9.302 2.655 4.653 0 9.299-1.828 12.769-5.459 6.738-7.051 6.486-18.23-.566-24.969z"/><path d="m406.545 361.622-11.178-6.335c-3.952-2.239-8.66 1.349-7.549 5.753l11.814 46.813c1.929 7.65-1.455 15.39-7.823 19.334 2.743 1.695 5.939 2.652 9.266 2.652 1.431 0 2.885-.175 4.334-.541 9.458-2.387 15.189-11.988 12.804-21.445z"/><path d="m263.805 429.647c-3.284-3.138-8.727-.811-8.727 3.731l.001 60.96c0 6.341-3.352 11.885-8.37 15 2.701 1.677 5.877 2.662 9.29 2.662 9.755 0 17.66-7.908 17.66-17.661l-.001-55.274z"/><path d="m423.586 330.984c-4.517 1.135-5.339 7.2-1.287 9.496l31.183 17.671c8.485 4.809 11.465 15.587 6.657 24.072-1.521 2.683-3.642 4.807-6.094 6.317l.602.341c2.751 1.558 5.741 2.299 8.692 2.299 6.152 0 12.129-3.221 15.38-8.957 4.808-8.485 1.828-19.263-6.657-24.072l-48.104-27.261z"/><path d="m128.014 349.237c-1.192.7-2.053 1.848-2.391 3.188l-16.168 64.071c-1.169 4.634-4.076 8.364-7.844 10.692 1.505.932 3.173 1.655 4.98 2.111 1.451.366 2.904.541 4.334.541 7.897 0 15.091-5.337 17.11-13.344l19.927-78.971z"/><path d="m238.338 433.364c0-4.542-5.444-6.869-8.727-3.731l-44.324 42.363c-.903.863-1.875 1.607-2.895 2.241 6.677 4.131 15.538 3.434 21.476-2.241l34.471-32.946z"/></g></g></g></svg>