<svg width="38" height="34" viewBox="0 0 38 34" fill="none" xmlns="http://www.w3.org/2000/svg">
<g filter="url(#filter0_d_6_5)">
<path d="M12.125 9.4375C10.6062 9.4375 9.375 10.6687 9.375 12.1875V12.875H28.625V12.1875C28.625 10.6687 27.3938 9.4375 25.875 9.4375H12.125Z" fill="white"/>
<path fill-rule="evenodd" clip-rule="evenodd" d="M28.625 14.9375H9.375V21.8125C9.375 23.3313 10.6062 24.5625 12.125 24.5625H25.875C27.3938 24.5625 28.625 23.3313 28.625 21.8125V14.9375ZM12.125 18.375C12.125 17.9953 12.4328 17.6875 12.8125 17.6875H18.3125C18.6922 17.6875 19 17.9953 19 18.375C19 18.7547 18.6922 19.0625 18.3125 19.0625H12.8125C12.4328 19.0625 12.125 18.7547 12.125 18.375ZM12.8125 20.4375C12.4328 20.4375 12.125 20.7453 12.125 21.125C12.125 21.5047 12.4328 21.8125 12.8125 21.8125H15.5625C15.9422 21.8125 16.25 21.5047 16.25 21.125C16.25 20.7453 15.9422 20.4375 15.5625 20.4375H12.8125Z" fill="white"/>
</g>
<defs>
<filter id="filter0_d_6_5" x="0.775" y="0.8375" width="36.45" height="32.325" filterUnits="userSpaceOnUse" color-interpolation-filters="sRGB">
<feFlood flood-opacity="0" result="BackgroundImageFix"/>
<feColorMatrix in="SourceAlpha" type="matrix" values="0 0 0 0 0 0 0 0 0 0 0 0 0 0 0 0 0 0 127 0" result="hardAlpha"/>
<feOffset/>
<feGaussianBlur stdDeviation="4.3"/>
<feComposite in2="hardAlpha" operator="out"/>
<feColorMatrix type="matrix" values="0 0 0 0 0 0 0 0 0 0 0 0 0 0 0 0 0 0 0.5 0"/>
<feBlend mode="normal" in2="BackgroundImageFix" result="effect1_dropShadow_6_5"/>
<feBlend mode="normal" in="SourceGraphic" in2="effect1_dropShadow_6_5" result="shape"/>
</filter>
</defs>
</svg>
