<svg id="Capa_1" enable-background="new 0 0 512 512" height="512" viewBox="0 0 512 512" width="512" xmlns="http://www.w3.org/2000/svg"><g><g><ellipse cx="256" cy="256" fill="#f9ef63" rx="156.359" ry="156.359" transform="matrix(.707 -.707 .707 .707 -106.039 256)"/><path d="m256 394.359c-83.333 0-151.431-65.194-156.096-147.359-.169 2.979-.264 5.978-.264 9 0 86.355 70.005 156.359 156.359 156.359s156.36-70.004 156.36-156.359c0-3.022-.095-6.021-.264-9-4.664 82.166-72.762 147.359-156.095 147.359z" fill="#f1cb86"/></g><g fill="#f9ef63"><path d="m48.696 247.983h-41.181c-4.15 0-7.515 3.364-7.515 7.515 0 4.15 3.364 7.515 7.515 7.515h41.181c4.15 0 7.515-3.365 7.515-7.515s-3.365-7.515-7.515-7.515z"/><path d="m255.498 455.789c-4.15 0-7.515 3.365-7.515 7.515v41.181c0 4.15 3.364 7.515 7.515 7.515 4.15 0 7.515-3.365 7.515-7.515v-41.181c0-4.15-3.365-7.515-7.515-7.515z"/><path d="m504.485 247.983h-41.182c-4.15 0-7.515 3.364-7.515 7.515 0 4.15 3.365 7.515 7.515 7.515h41.182c4.15 0 7.515-3.365 7.515-7.515s-3.365-7.515-7.515-7.515z"/><path d="m255.498 56.211c4.15 0 7.515-3.364 7.515-7.515v-41.181c0-4.15-3.365-7.515-7.515-7.515s-7.515 3.365-7.515 7.515v41.182c0 4.149 3.365 7.514 7.515 7.514z"/><path d="m104.455 114.373c1.467 1.467 3.39 2.201 5.314 2.201 1.923 0 3.846-.734 5.314-2.201 2.935-2.934 2.935-7.693 0-10.627l-29.12-29.12c-2.934-2.934-7.693-2.934-10.627 0-2.935 2.935-2.935 7.693 0 10.627z"/><path d="m103.746 396.917-29.12 29.12c-2.935 2.934-2.935 7.693 0 10.627 1.467 1.467 3.39 2.201 5.314 2.201s3.846-.734 5.314-2.201l29.12-29.12c2.935-2.934 2.935-7.693 0-10.627-2.936-2.934-7.694-2.934-10.628 0z"/><path d="m408.254 396.917c-2.934-2.934-7.693-2.934-10.627 0-2.935 2.935-2.935 7.693 0 10.627l29.12 29.12c1.467 1.467 3.39 2.201 5.314 2.201 1.923 0 3.846-.734 5.314-2.201 2.935-2.935 2.935-7.693 0-10.627z"/><path d="m402.231 116.574c1.923 0 3.846-.734 5.314-2.201l29.12-29.12c2.935-2.934 2.935-7.693 0-10.627s-7.693-2.934-10.627 0l-29.12 29.12c-2.935 2.934-2.935 7.693 0 10.627 1.466 1.467 3.39 2.201 5.313 2.201z"/></g></g></svg>