<svg width="38" height="35" viewBox="0 0 38 35" fill="none" xmlns="http://www.w3.org/2000/svg">
<g filter="url(#filter0_d_845_1270)">
<path fill-rule="evenodd" clip-rule="evenodd" d="M9.09961 10.3998C9.09961 9.79229 9.5921 9.2998 10.1996 9.2998H27.7996C28.4071 9.2998 28.8996 9.79229 28.8996 10.3998V19.1998C28.8996 19.8073 28.4071 20.2998 27.7996 20.2998H10.1996C9.5921 20.2998 9.09961 19.8073 9.09961 19.1998V10.3998ZM22.2996 14.7998C22.2996 16.6223 20.8221 18.0998 18.9996 18.0998C17.1771 18.0998 15.6996 16.6223 15.6996 14.7998C15.6996 12.9773 17.1771 11.4998 18.9996 11.4998C20.8221 11.4998 22.2996 12.9773 22.2996 14.7998ZM12.3996 15.8998C13.0071 15.8998 13.4996 15.4073 13.4996 14.7998C13.4996 14.1923 13.0071 13.6998 12.3996 13.6998C11.7921 13.6998 11.2996 14.1923 11.2996 14.7998C11.2996 15.4073 11.7921 15.8998 12.3996 15.8998ZM26.6996 14.7998C26.6996 15.4073 26.2071 15.8998 25.5996 15.8998C24.9921 15.8998 24.4996 15.4073 24.4996 14.7998C24.4996 14.1923 24.9921 13.6998 25.5996 13.6998C26.2071 13.6998 26.6996 14.1923 26.6996 14.7998ZM9.92461 21.9498C9.46897 21.9498 9.09961 22.3192 9.09961 22.7748C9.09961 23.2304 9.46897 23.5998 9.92461 23.5998C14.7836 23.5998 19.4865 24.2629 23.9482 25.5029C25.1708 25.8427 26.4246 24.9399 26.4246 23.6368V22.7748C26.4246 22.3192 26.0552 21.9498 25.5996 21.9498C25.144 21.9498 24.7746 22.3192 24.7746 22.7748V23.6368C24.7746 23.8146 24.5943 23.97 24.3901 23.9132C19.7858 22.6335 14.9344 21.9498 9.92461 21.9498Z" fill="white"/>
</g>
<defs>
<filter id="filter0_d_845_1270" x="0.499609" y="0.699804" width="37.0008" height="33.4754" filterUnits="userSpaceOnUse" color-interpolation-filters="sRGB">
<feFlood flood-opacity="0" result="BackgroundImageFix"/>
<feColorMatrix in="SourceAlpha" type="matrix" values="0 0 0 0 0 0 0 0 0 0 0 0 0 0 0 0 0 0 127 0" result="hardAlpha"/>
<feOffset/>
<feGaussianBlur stdDeviation="4.3"/>
<feComposite in2="hardAlpha" operator="out"/>
<feColorMatrix type="matrix" values="0 0 0 0 0 0 0 0 0 0 0 0 0 0 0 0 0 0 0.5 0"/>
<feBlend mode="normal" in2="BackgroundImageFix" result="effect1_dropShadow_845_1270"/>
<feBlend mode="normal" in="SourceGraphic" in2="effect1_dropShadow_845_1270" result="shape"/>
</filter>
</defs>
</svg>
