<svg width="31" height="30" viewBox="0 0 31 30" fill="none" xmlns="http://www.w3.org/2000/svg">
<g filter="url(#filter0_d_1_142)">
<path d="M20.3742 21.2617H19.0343V19.3026H19.3876C19.8672 19.3019 20.327 19.111 20.6661 18.7719C21.0053 18.4327 21.1961 17.973 21.1969 17.4934V13.4395H21.4937C21.5687 13.4395 21.6406 13.4097 21.6936 13.3567C21.7466 13.3036 21.7764 13.2317 21.7764 13.1568V11.5482L22.5256 12.173C22.5551 12.197 22.5921 12.21 22.6302 12.2097C22.654 12.2098 22.6776 12.2046 22.6992 12.1943C22.7207 12.184 22.7397 12.169 22.7546 12.1504C22.7683 12.1339 22.7787 12.1149 22.785 12.0944C22.7913 12.074 22.7934 12.0524 22.7913 12.0311C22.7892 12.0098 22.7829 11.9891 22.7727 11.9703C22.7625 11.9514 22.7486 11.9348 22.732 11.9214L21.7906 11.127V10.0358L24.284 8.56008C24.3964 8.4941 24.4781 8.38614 24.511 8.25997C24.5438 8.13379 24.5252 7.99972 24.4592 7.88725C24.3933 7.77479 24.2853 7.69314 24.1591 7.66027C24.033 7.6274 23.8989 7.646 23.7864 7.71198L21.1658 9.26682H20.281C20.1952 9.26682 20.113 9.30068 20.0521 9.36104C19.9912 9.4214 19.9566 9.50337 19.9558 9.5891V13.1426C19.9593 13.2165 19.9902 13.2864 20.0425 13.3387C20.0948 13.391 20.1647 13.4219 20.2385 13.4253V17.4934C20.2385 17.7183 20.1492 17.934 19.9901 18.0931C19.8311 18.2521 19.6154 18.3415 19.3905 18.3415H19.0343V7.25684C19.0343 7.03715 18.947 6.82647 18.7916 6.67113C18.6363 6.5158 18.4256 6.42853 18.2059 6.42853H8.59418C8.37424 6.42853 8.16327 6.5157 8.00748 6.67096C7.85169 6.82622 7.7638 7.0369 7.76305 7.25684V21.2617H6.42871V23.5714H20.3742V21.2617ZM16.7896 12.9532H10.0049V9.14244H16.7896V12.9532Z" fill="white" fill-opacity="0.2" shape-rendering="crispEdges"/>
</g>
<defs>
<filter id="filter0_d_1_142" x="0.428711" y="0.428528" width="30.0981" height="29.1429" filterUnits="userSpaceOnUse" color-interpolation-filters="sRGB">
<feFlood flood-opacity="0" result="BackgroundImageFix"/>
<feColorMatrix in="SourceAlpha" type="matrix" values="0 0 0 0 0 0 0 0 0 0 0 0 0 0 0 0 0 0 127 0" result="hardAlpha"/>
<feOffset/>
<feGaussianBlur stdDeviation="3"/>
<feComposite in2="hardAlpha" operator="out"/>
<feColorMatrix type="matrix" values="0 0 0 0 0.1625 0 0 0 0 0.1625 0 0 0 0 0.1625 0 0 0 0.25 0"/>
<feBlend mode="normal" in2="BackgroundImageFix" result="effect1_dropShadow_1_142"/>
<feBlend mode="normal" in="SourceGraphic" in2="effect1_dropShadow_1_142" result="shape"/>
</filter>
</defs>
</svg>
