<svg width="512" height="512" viewBox="0 0 512 512" fill="none" xmlns="http://www.w3.org/2000/svg">
<g clip-path="url(#clip0_5_5)">
<path d="M463.743 48.2569C399.4 -16.0861 294.706 -16.0851 230.363 48.2569C186.417 92.2029 171.157 156.982 190.178 215.74L4.395 401.524C3.00167 402.917 1.89638 404.571 1.14228 406.391C0.388176 408.211 2.66887e-05 410.162 0 412.132L0 496.998C0 505.284 6.717 512 15.002 512H99.868C103.848 512 107.662 510.419 110.477 507.605L131.697 486.385C133.297 484.785 134.514 482.843 135.258 480.706C136.001 478.569 136.251 476.292 135.99 474.044L133.342 451.261L164.926 448.284C168.403 447.956 171.656 446.426 174.126 443.956C176.595 441.487 178.126 438.234 178.454 434.757L181.433 403.169L204.218 405.817C206.32 406.061 208.45 405.858 210.468 405.221C212.486 404.583 214.347 403.526 215.927 402.119C217.508 400.711 218.773 398.985 219.639 397.055C220.505 395.124 220.953 393.031 220.953 390.915V362.977H248.383C252.332 362.977 256.121 361.42 258.93 358.644L296.202 321.802C354.974 340.853 419.785 325.596 463.744 281.636C528.085 217.294 528.085 112.599 463.743 48.2569ZM442.527 260.421C404.661 298.286 347.861 310.105 297.824 290.535C295.122 289.478 292.171 289.227 289.329 289.813C286.487 290.399 283.877 291.797 281.813 293.837L242.22 332.973H205.95C197.665 332.973 190.948 339.69 190.948 347.975V374.068L169.668 371.595C167.684 371.364 165.674 371.532 163.755 372.089C161.837 372.646 160.049 373.58 158.496 374.837C156.944 376.093 155.658 377.647 154.714 379.408C153.77 381.168 153.187 383.099 152.999 385.088L149.746 419.577L115.26 422.827C113.271 423.014 111.34 423.597 109.579 424.541C107.819 425.485 106.264 426.771 105.007 428.324C103.75 429.876 102.816 431.664 102.259 433.583C101.703 435.501 101.534 437.512 101.765 439.496L105.347 470.3L93.653 481.997H30.003V418.348L218.1 230.251C220.162 228.189 221.579 225.57 222.176 222.716C222.774 219.861 222.526 216.894 221.464 214.178C201.892 164.14 213.713 107.342 251.578 69.4749C304.224 16.8309 389.882 16.8309 442.526 69.4749C495.17 122.118 495.17 207.777 442.527 260.421Z" fill="white"/>
<path d="M421.309 90.6899C403.761 73.1409 375.207 73.1419 357.66 90.6899C340.112 108.238 340.112 136.791 357.66 154.339C375.207 171.887 403.761 171.889 421.309 154.339C438.857 136.791 438.857 108.238 421.309 90.6899ZM400.093 133.123C394.244 138.972 384.727 138.973 378.877 133.123C373.028 127.274 373.028 117.757 378.877 111.907C384.742 106.043 394.229 106.043 400.093 111.907C405.957 117.771 405.956 127.259 400.093 133.123Z" fill="white"/>
</g>
<defs>
<clipPath id="clip0_5_5">
<rect width="512" height="512" fill="white"/>
</clipPath>
</defs>
</svg>
