<svg width="512" height="512" viewBox="0 0 512 512" fill="none" xmlns="http://www.w3.org/2000/svg">
<g clip-path="url(#clip0_9_2)">
<path d="M338.048 511.979C329.856 511.979 321.643 510.251 314.069 506.795L271.147 487.275C266.392 485.119 261.231 484.003 256.011 484.003C250.79 484.003 245.629 485.119 240.875 487.275L197.952 506.773C190.721 510.043 182.897 511.8 174.962 511.936C167.026 512.071 159.147 510.583 151.808 507.563C144.483 504.51 137.858 499.993 132.341 494.288C126.823 488.584 122.529 481.812 119.723 474.389L103.168 430.229C101.338 425.341 98.4807 420.901 94.7897 417.21C91.0986 413.519 86.6592 410.662 81.7707 408.832L37.6107 392.277C22.6347 386.645 10.56 374.955 4.43738 360.192C-1.68529 345.429 -1.38662 328.619 5.22671 314.048L24.7467 271.125C26.8974 266.369 28.0098 261.209 28.0098 255.989C28.0098 250.769 26.8974 245.609 24.7467 240.853L5.20538 197.931C-1.40795 183.381 -1.70662 166.549 4.41605 151.787C10.5387 137.024 22.6347 125.333 37.5894 119.701L81.7494 103.147C91.648 99.4346 99.4561 91.6266 103.147 81.7493L119.701 37.5893C122.506 30.1648 126.799 23.3922 132.317 17.6875C137.834 11.9828 144.46 7.46643 151.787 4.41593C159.125 1.39042 167.004 -0.100393 174.94 0.0353595C182.876 0.171112 190.701 1.93056 197.931 5.20527L240.853 24.7253C250.453 29.0773 261.504 29.0986 271.125 24.7253L314.048 5.2266C328.597 -1.40807 345.429 -1.6854 360.192 4.43727C374.955 10.5599 386.645 22.6559 392.277 37.6106L408.832 81.7706C412.544 91.6693 420.352 99.4773 430.229 103.168L474.389 119.723C489.365 125.355 501.44 137.045 507.563 151.808C513.685 166.571 513.387 183.381 506.773 197.952L487.253 240.875C485.103 245.631 483.99 250.791 483.99 256.011C483.99 261.23 485.103 266.39 487.253 271.147L506.752 314.069C513.365 328.619 513.664 345.451 507.541 360.213C501.419 374.976 489.323 386.667 474.368 392.299L430.208 408.853C420.309 412.565 412.501 420.373 408.811 430.251L392.256 474.411C388.128 485.452 380.723 494.968 371.035 501.683C361.346 508.397 349.836 511.99 338.048 511.979ZM256 462.677C264.171 462.677 272.341 464.405 279.957 467.861L322.901 487.381C332.245 491.648 342.592 491.819 352.043 487.872C361.515 483.947 368.704 476.501 372.309 466.923L388.864 422.763C391.764 415.024 396.288 407.996 402.131 402.153C407.975 396.309 415.003 391.785 422.741 388.885L466.901 372.331C476.501 368.747 483.947 361.536 487.851 352.064C489.794 347.438 490.754 342.459 490.669 337.442C490.585 332.425 489.458 327.48 487.36 322.923L467.84 280C464.424 272.471 462.657 264.299 462.657 256.032C462.657 247.765 464.424 239.593 467.84 232.064L487.36 189.12C491.605 179.797 491.776 169.451 487.851 159.979C483.925 150.507 476.48 143.317 466.901 139.712L422.741 123.157C415.003 120.258 407.975 115.734 402.131 109.89C396.288 104.046 391.764 97.0187 388.864 89.2799L372.309 45.1199C370.573 40.4109 367.874 36.1157 364.385 32.5086C360.895 28.9015 356.692 26.0617 352.043 24.1706C347.418 22.2222 342.438 21.2595 337.42 21.3439C332.403 21.4284 327.458 22.5583 322.901 24.6613L279.979 44.1813C272.451 47.5875 264.284 49.3494 256.021 49.3494C247.759 49.3494 239.592 47.5875 232.064 44.1813L189.099 24.6186C179.755 20.3733 169.429 20.2026 159.957 24.1279C150.485 28.0533 143.296 35.4986 139.691 45.0773L123.136 89.2373C120.234 96.9772 115.71 104.007 109.866 109.853C104.023 115.7 96.9968 120.229 89.2587 123.136L45.0987 139.691C35.4987 143.275 28.0534 150.485 24.1494 159.957C20.2027 169.429 20.3947 179.776 24.6187 189.099L44.1387 232.021C47.5548 239.55 49.3221 247.722 49.3221 255.989C49.3221 264.257 47.5548 272.429 44.1387 279.957L24.6187 322.901C20.3734 332.224 20.2027 342.571 24.128 352.043C28.0534 361.515 35.4987 368.704 45.0774 372.309L89.2374 388.864C96.9761 391.764 104.004 396.288 109.847 402.131C115.691 407.975 120.215 415.003 123.115 422.741L139.669 466.901C143.253 476.501 150.464 483.947 159.936 487.851C169.408 491.776 179.733 491.605 189.077 487.36L232 467.84C239.546 464.445 247.725 462.685 256 462.677Z" fill="white"/>
<path d="M181.333 213.333C151.936 213.333 128 189.397 128 160C128 130.603 151.936 106.667 181.333 106.667C210.731 106.667 234.667 130.603 234.667 160C234.667 189.397 210.731 213.333 181.333 213.333ZM181.333 128C163.691 128 149.333 142.357 149.333 160C149.333 177.643 163.691 192 181.333 192C198.976 192 213.333 177.643 213.333 160C213.333 142.357 198.976 128 181.333 128ZM330.667 405.333C301.269 405.333 277.333 381.397 277.333 352C277.333 322.603 301.269 298.667 330.667 298.667C360.064 298.667 384 322.603 384 352C384 381.397 360.064 405.333 330.667 405.333ZM330.667 320C313.024 320 298.667 334.357 298.667 352C298.667 369.643 313.024 384 330.667 384C348.309 384 362.667 369.643 362.667 352C362.667 334.357 348.309 320 330.667 320ZM181.333 384C179.422 384.003 177.545 383.491 175.9 382.518C174.255 381.545 172.902 380.148 171.983 378.472C171.065 376.796 170.614 374.903 170.679 372.993C170.744 371.083 171.322 369.226 172.352 367.616L321.685 132.949C323.247 130.66 325.638 129.068 328.352 128.511C331.067 127.953 333.891 128.474 336.229 129.963C338.566 131.452 340.232 133.792 340.874 136.487C341.516 139.183 341.084 142.023 339.669 144.405L190.336 379.072C189.371 380.584 188.04 381.829 186.466 382.69C184.893 383.551 183.127 384.002 181.333 384Z" fill="white"/>
</g>
<defs>
<clipPath id="clip0_9_2">
<rect width="512" height="512" fill="white"/>
</clipPath>
</defs>
</svg>
