<svg id="Home" xmlns="http://www.w3.org/2000/svg" xmlns:xlink="http://www.w3.org/1999/xlink" width="42" height="42" viewBox="0 0 42 42">
  <defs>
    <clipPath id="clip-path">
      <path id="Mask" d="M42,28.921c0,.5,0,1,0,1.5,0,.42-.007.841-.019,1.261a18.094,18.094,0,0,1-.244,2.745,9.163,9.163,0,0,1-.87,2.612,8.776,8.776,0,0,1-1.633,2.223,8.876,8.876,0,0,1-2.249,1.615,9.425,9.425,0,0,1-2.64.86,18.727,18.727,0,0,1-2.778.242C29.781,42,29.276,42,28.771,42H13.23c-1.941-.006-2.367-.01-2.792-.022a18.727,18.727,0,0,1-2.778-.242,9.425,9.425,0,0,1-2.64-.86,8.831,8.831,0,0,1-3.883-3.838,9.209,9.209,0,0,1-.87-2.612,18.094,18.094,0,0,1-.244-2.745C.011,31.261.006,30.84,0,30.42c0-.5,0-1,0-1.5V13.079c0-.5,0-1,0-1.5,0-.421.007-.842.019-1.262A18.1,18.1,0,0,1,.266,7.573a9.2,9.2,0,0,1,.87-2.611A8.831,8.831,0,0,1,5.02,1.124,9.425,9.425,0,0,1,7.66.263,18.728,18.728,0,0,1,10.438.022C12.22,0,12.725,0,13.23,0H28.357L22.968,0l5.8,0c1.94.006,2.366.01,2.792.022A18.728,18.728,0,0,1,34.34.263a9.425,9.425,0,0,1,2.64.86A8.858,8.858,0,0,1,39.23,2.739a8.751,8.751,0,0,1,1.633,2.223,9.159,9.159,0,0,1,.87,2.611,18.1,18.1,0,0,1,.244,2.746c.012.42.017.841.019,1.262,0,.5,0,1,0,1.5V28.921Z" fill="#fff"/>
    </clipPath>
  </defs>
  <path id="Mask-2" data-name="Mask" d="M42,28.921c0,.5,0,1,0,1.5,0,.42-.007.841-.019,1.261a18.094,18.094,0,0,1-.244,2.745,9.163,9.163,0,0,1-.87,2.612,8.776,8.776,0,0,1-1.633,2.223,8.876,8.876,0,0,1-2.249,1.615,9.425,9.425,0,0,1-2.64.86,18.727,18.727,0,0,1-2.778.242C29.781,42,29.276,42,28.771,42H13.23c-1.941-.006-2.367-.01-2.792-.022a18.727,18.727,0,0,1-2.778-.242,9.425,9.425,0,0,1-2.64-.86,8.831,8.831,0,0,1-3.883-3.838,9.209,9.209,0,0,1-.87-2.612,18.094,18.094,0,0,1-.244-2.745C.011,31.261.006,30.84,0,30.42c0-.5,0-1,0-1.5V13.079c0-.5,0-1,0-1.5,0-.421.007-.842.019-1.262A18.1,18.1,0,0,1,.266,7.573a9.2,9.2,0,0,1,.87-2.611A8.831,8.831,0,0,1,5.02,1.124,9.425,9.425,0,0,1,7.66.263,18.728,18.728,0,0,1,10.438.022C12.22,0,12.725,0,13.23,0H28.357L22.968,0l5.8,0c1.94.006,2.366.01,2.792.022A18.728,18.728,0,0,1,34.34.263a9.425,9.425,0,0,1,2.64.86A8.858,8.858,0,0,1,39.23,2.739a8.751,8.751,0,0,1,1.633,2.223,9.159,9.159,0,0,1,.87,2.611,18.1,18.1,0,0,1,.244,2.746c.012.42.017.841.019,1.262,0,.5,0,1,0,1.5V28.921Z" fill="#fff"/>
  <g id="Home-2" data-name="Home" clip-path="url(#clip-path)">
    <path id="House" d="M6.243,28.856a3,3,0,0,1-3-3v-13.1H.421a.42.42,0,0,1-.262-.749L15.058.152a.7.7,0,0,1,.871,0l8.314,6.616V5.006a1,1,0,0,1,1-1h1.15a1,1,0,0,1,1,1V9.274l3.434,2.733a.42.42,0,0,1-.262.749H27.743v13.1a3,3,0,0,1-3,3Z" transform="translate(5.507 5.094)" fill="#fa9013"/>
    <path id="Inner" d="M9.719-.06a.7.7,0,0,1,.865,0L20.165,7.4a.35.35,0,0,1,.135.276V22.908a.7.7,0,0,1-.7.7H.7a.7.7,0,0,1-.7-.7V7.811a.35.35,0,0,1,.133-.274Z" transform="translate(10.85 8.242)" fill="#ffae28"/>
    <path id="Inner-2" data-name="Inner" d="M7.282-.046a.7.7,0,0,1,.846-.012l7.13,5.25a.35.35,0,0,1,.142.282V17.2a.7.7,0,0,1-.7.7H.7a.7.7,0,0,1-.7-.7V5.817a.35.35,0,0,1,.134-.276Z" transform="translate(13.3 11.503)" fill="#ffc148"/>
    <path id="Inner-3" data-name="Inner" d="M4.826.105A.7.7,0,0,1,5.684.093l4.677,3.523a.35.35,0,0,1,.139.28V11.81a.7.7,0,0,1-.7.7H.7a.7.7,0,0,1-.7-.7V4.133A.35.35,0,0,1,.131,3.86Z" transform="translate(15.75 14.44)" fill="#ffd361"/>
    <path id="Inner-4" data-name="Inner" d="M2.562-.354a.35.35,0,0,1,.475,0l2.45,2.266a.35.35,0,0,1,.112.257V6.216a.35.35,0,0,1-.35.35H.35A.35.35,0,0,1,0,6.216V2.169a.35.35,0,0,1,.112-.257Z" transform="translate(18.2 17.934)" fill="#ffe780"/>
  </g>
</svg>
