<svg id="company" xmlns="http://www.w3.org/2000/svg" xmlns:xlink="http://www.w3.org/1999/xlink" width="90" height="90" viewBox="0 0 90 90">
  <defs>
    <linearGradient id="linear-gradient" x2="1" y2="1" gradientUnits="objectBoundingBox">
      <stop offset="0" stop-color="#4fabf7"/>
      <stop offset="1" stop-color="#3b99e6"/>
    </linearGradient>
    <clipPath id="clip-path">
      <rect id="Прямоугольник_1689" data-name="Прямоугольник 1689" width="66" height="66" transform="translate(19.664 19.664)" fill="#fff"/>
    </clipPath>
  </defs>
  <rect id="Прямоугольник_1687" data-name="Прямоугольник 1687" width="90" height="90" rx="20" fill="url(#linear-gradient)"/>
  <g id="Группа_масок_47" data-name="Группа масок 47" transform="translate(-7.664 -7.664)" clip-path="url(#clip-path)">
    <g id="buildings" transform="translate(21.403 20)">
      <path id="Контур_8668" data-name="Контур 8668" d="M43.079,54.566l16-4.966A31.264,31.264,0,1,0,9.324,54.566Z" transform="translate(-1.074 0.658)" fill="#69bafe"/>
      <path id="Контур_8669" data-name="Контур 8669" d="M32.061,6.083A2.108,2.108,0,0,1,34.728,4.2a.562.562,0,0,0,.6-.2,3.819,3.819,0,0,1,6.656,1.16.557.557,0,0,0,.6.374,2.322,2.322,0,0,1,2.238,1.1.561.561,0,0,0,.755.192,1.776,1.776,0,1,1,.858,3.33H31.462a1.812,1.812,0,0,1-1.819-1.808,1.779,1.779,0,0,1,1.85-1.744.551.551,0,0,0,.568-.522Z" transform="translate(7.684 0.772)" fill="#73c3f9"/>
      <path id="Контур_8670" data-name="Контур 8670" d="M25.66,12.832a3.251,3.251,0,0,1,4.113-2.908.868.868,0,0,0,.931-.3,5.891,5.891,0,0,1,10.268,1.79.859.859,0,0,0,.927.577,3.582,3.582,0,0,1,3.453,1.693.865.865,0,0,0,1.164.3,2.739,2.739,0,1,1,1.324,5.138h-23.1a2.8,2.8,0,0,1-2.806-2.789,2.744,2.744,0,0,1,2.854-2.69.852.852,0,0,0,.876-.806Z" transform="translate(5.319 2.248)" fill="#9bd8f9"/>
      <path id="Контур_8671" data-name="Контур 8671" d="M25.616,25.925a2.739,2.739,0,0,0-4.046-2.084.865.865,0,0,1-1.164-.3,3.582,3.582,0,0,0-3.453-1.693.859.859,0,0,1-.927-.577,5.891,5.891,0,0,0-10.268-1.79.868.868,0,0,1-.931.3,3.181,3.181,0,0,0-2.535.341A31.275,31.275,0,0,0,1.074,28.8c0,.061,0,.122,0,.183H22.894a2.74,2.74,0,0,0,2.722-3.053Z" transform="translate(-1.074 5.271)" fill="#73c3f9"/>
      <path id="Контур_8672" data-name="Контур 8672" d="M38.141,43.352h-.195v14.12A31.405,31.405,0,0,0,50.187,45.86V23.266l-19.8-9.426V40.232h7.756a1.56,1.56,0,1,1,0,3.12Z" transform="translate(7.911 4.243)" fill="#3c58a0"/>
      <path id="Контур_8673" data-name="Контур 8673" d="M30.385,40.232h7.761v-.2a2.179,2.179,0,0,1-1.464-2.174V20.319a1.47,1.47,0,0,1,1.58-1.651L38.07,17.5,30.385,13.84V40.232Z" transform="translate(7.911 4.243)" fill="#2a428c"/>
      <path id="Контур_8674" data-name="Контур 8674" d="M7.3,48.064a31.194,31.194,0,0,0,18.972,9.954V40.626h7.343V22.944H7.3Z" transform="translate(0.834 7.033)" fill="#dae2fe"/>
      <path id="Контур_8675" data-name="Контур 8675" d="M14.191,27.84a4.9,4.9,0,0,1,4.9-4.9H7.3V48.064a31.4,31.4,0,0,0,6.894,5.686Z" transform="translate(0.834 7.033)" fill="#bec8f7"/>
      <path id="Контур_8676" data-name="Контур 8676" d="M9.555,11.842H29.971V26.477H9.555Z" transform="translate(1.526 3.63)" fill="#dae2fe"/>
      <path id="Контур_8677" data-name="Контур 8677" d="M15.045,23.017V15.3a3.46,3.46,0,0,1,3.46-3.46H9.555V26.477h8.95a3.46,3.46,0,0,1-3.46-3.46Z" transform="translate(1.526 3.63)" fill="#bec8f7"/>
      <g id="Сгруппировать_498" data-name="Сгруппировать 498" transform="translate(20.314)">
        <path id="Контур_8678" data-name="Контур 8678" d="M17.6,5.976A.975.975,0,0,1,16.622,5V.975a.975.975,0,1,1,1.95,0V5A.975.975,0,0,1,17.6,5.976Z" transform="translate(-16.622)" fill="#dae2fe"/>
      </g>
      <g id="Сгруппировать_499" data-name="Сгруппировать 499" transform="translate(11.056 33.355)">
        <path id="Контур_8679" data-name="Контур 8679" d="M10.511,25.529a.975.975,0,0,0-.975.975V50.093q.944.8,1.95,1.526V26.5a.975.975,0,0,0-.975-.975Z" transform="translate(-9.536 -25.529)" fill="#a8b7ef"/>
        <path id="Контур_8680" data-name="Контур 8680" d="M13.345,25.529a.975.975,0,0,0-.975.975V52.794q.953.593,1.95,1.119V26.5A.975.975,0,0,0,13.345,25.529Z" transform="translate(-8.667 -25.529)" fill="#a8b7ef"/>
        <path id="Контур_8681" data-name="Контур 8681" d="M16.18,25.529a.975.975,0,0,0-.975.975V54.769q.958.431,1.95.8V26.5A.975.975,0,0,0,16.18,25.529Z" transform="translate(-7.799 -25.529)" fill="#a8b7ef"/>
        <path id="Контур_8682" data-name="Контур 8682" d="M19.014,25.529a.975.975,0,0,0-.975.975V56.156q.962.292,1.95.524V26.5A.975.975,0,0,0,19.014,25.529Z" transform="translate(-6.93 -25.529)" fill="#a8b7ef"/>
      </g>
      <g id="Сгруппировать_500" data-name="Сгруппировать 500" transform="translate(25.868 33.355)">
        <path id="Контур_8683" data-name="Контур 8683" d="M21.848,35.283a.975.975,0,0,1-.975-.975V26.5a.975.975,0,0,1,1.95,0v7.8A.975.975,0,0,1,21.848,35.283Z" transform="translate(-20.873 -25.529)" fill="#a8b7ef"/>
      </g>
      <g id="Сгруппировать_501" data-name="Сгруппировать 501" transform="translate(14.759 18.053)">
        <path id="Контур_8684" data-name="Контур 8684" d="M13.345,23.532a.975.975,0,0,1-.975-.975V14.793a.975.975,0,0,1,1.95,0v7.764A.975.975,0,0,1,13.345,23.532Z" transform="translate(-12.37 -13.818)" fill="#a8b7ef"/>
      </g>
      <g id="Сгруппировать_502" data-name="Сгруппировать 502" transform="translate(18.462 18.053)">
        <path id="Контур_8685" data-name="Контур 8685" d="M16.18,23.532a.975.975,0,0,1-.975-.975V14.793a.975.975,0,0,1,1.95,0v7.764A.975.975,0,0,1,16.18,23.532Z" transform="translate(-15.205 -13.818)" fill="#a8b7ef"/>
      </g>
      <g id="Сгруппировать_503" data-name="Сгруппировать 503" transform="translate(22.165 18.053)">
        <path id="Контур_8686" data-name="Контур 8686" d="M19.014,23.532a.975.975,0,0,1-.975-.975V14.793a.975.975,0,0,1,1.95,0v7.764A.975.975,0,0,1,19.014,23.532Z" transform="translate(-18.039 -13.818)" fill="#a8b7ef"/>
      </g>
      <g id="Сгруппировать_504" data-name="Сгруппировать 504" transform="translate(25.868 18.053)">
        <path id="Контур_8687" data-name="Контур 8687" d="M21.848,23.532a.975.975,0,0,1-.975-.975V14.793a.975.975,0,0,1,1.95,0v7.764A.975.975,0,0,1,21.848,23.532Z" transform="translate(-20.873 -13.818)" fill="#a8b7ef"/>
      </g>
      <g id="Сгруппировать_505" data-name="Сгруппировать 505" transform="translate(25.868 18.053)">
        <path id="Контур_8688" data-name="Контур 8688" d="M21.848,23.532a.975.975,0,0,1-.975-.975V14.793a.975.975,0,0,1,1.95,0v7.764A.975.975,0,0,1,21.848,23.532Z" transform="translate(-20.873 -13.818)" fill="#a8b7ef"/>
      </g>
      <g id="Сгруппировать_506" data-name="Сгруппировать 506" transform="translate(29.571 33.355)">
        <path id="Контур_8689" data-name="Контур 8689" d="M24.682,35.283a.975.975,0,0,1-.975-.975V26.5a.975.975,0,0,1,1.95,0v7.8A.975.975,0,0,1,24.682,35.283Z" transform="translate(-23.707 -25.529)" fill="#a8b7ef"/>
      </g>
      <path id="Контур_8690" data-name="Контур 8690" d="M13.275,4.382h10.7v9.748h-10.7Z" transform="translate(2.666 1.343)" fill="#dae2fe"/>
      <path id="Контур_8691" data-name="Контур 8691" d="M17.744,11.179V7.331a2.95,2.95,0,0,1,2.95-2.95H13.275v9.748h7.419A2.95,2.95,0,0,1,17.744,11.179Z" transform="translate(2.666 1.343)" fill="#bec8f7"/>
      <path id="Контур_8692" data-name="Контур 8692" d="M21.619,36.478V53.833a31.521,31.521,0,0,0,4.417.312,31.12,31.12,0,0,0,14.8-3.719V36.478Z" transform="translate(5.224 11.182)" fill="#ffc839"/>
      <path id="Контур_8693" data-name="Контур 8693" d="M28.532,49.738V40.885a4.407,4.407,0,0,1,4.407-4.407H21.619V53.833a31.478,31.478,0,0,0,9.459-.093,4.416,4.416,0,0,1-2.546-4Z" transform="translate(5.224 11.182)" fill="#ffb332"/>
      <g id="Сгруппировать_507" data-name="Сгруппировать 507" transform="translate(41.426 30.612)">
        <path id="Контур_8694" data-name="Контур 8694" d="M45.219,25.38H33.755a.975.975,0,0,1,0-1.95H45.219a.975.975,0,0,1,0,1.95Z" transform="translate(-32.78 -23.43)" fill="#73c3f9"/>
      </g>
      <g id="Сгруппировать_508" data-name="Сгруппировать 508" transform="translate(41.426 34.72)">
        <path id="Контур_8695" data-name="Контур 8695" d="M45.219,28.524H33.755a.975.975,0,0,1,0-1.95H45.219a.975.975,0,0,1,0,1.95Z" transform="translate(-32.78 -26.574)" fill="#73c3f9"/>
      </g>
      <g id="Сгруппировать_509" data-name="Сгруппировать 509" transform="translate(41.426 38.829)">
        <path id="Контур_8696" data-name="Контур 8696" d="M45.219,31.669H33.755a.975.975,0,0,1,0-1.95H45.219a.975.975,0,0,1,0,1.95Z" transform="translate(-32.78 -29.719)" fill="#73c3f9"/>
      </g>
      <g id="Сгруппировать_510" data-name="Сгруппировать 510" transform="translate(49.114 42.937)">
        <path id="Контур_8697" data-name="Контур 8697" d="M43.415,34.813H39.64a.975.975,0,1,1,0-1.95h3.776a.975.975,0,1,1,0,1.95Z" transform="translate(-38.664 -32.863)" fill="#73c3f9"/>
      </g>
      <g id="Сгруппировать_511" data-name="Сгруппировать 511" transform="translate(49.114 47.046)">
        <path id="Контур_8698" data-name="Контур 8698" d="M43.415,37.958H39.64a.975.975,0,0,1,0-1.95h3.776a.975.975,0,0,1,0,1.95Z" transform="translate(-38.664 -36.008)" fill="#73c3f9"/>
      </g>
      <g id="Сгруппировать_512" data-name="Сгруппировать 512" transform="translate(48.334 51.154)">
        <path id="Контур_8699" data-name="Контур 8699" d="M43.6,41.1H39.043a.975.975,0,1,1,0-1.95H43.6a.975.975,0,1,1,0,1.95Z" transform="translate(-38.067 -39.152)" fill="#73c3f9"/>
      </g>
      <path id="Контур_8700" data-name="Контур 8700" d="M43.6,42.3H39.042a.975.975,0,1,0,0,1.95h2.964q1-.905,1.912-1.9A.971.971,0,0,0,43.6,42.3Z" transform="translate(10.266 12.966)" fill="#73c3f9"/>
      <g id="Сгруппировать_513" data-name="Сгруппировать 513" transform="translate(37.1 16.997)">
        <path id="Контур_8701" data-name="Контур 8701" d="M50.586,24.555a.97.97,0,0,1-.419-.1l-20.141-9.6a.975.975,0,1,1,.839-1.761l20.141,9.6a.975.975,0,0,1-.42,1.856Z" transform="translate(-29.47 -13.009)" fill="#4f71b6"/>
      </g>
      <g id="Сгруппировать_514" data-name="Сгруппировать 514" transform="translate(29.921 50.527)">
        <path id="Контур_8702" data-name="Контур 8702" d="M24.95,41.812a.975.975,0,0,1-.975-.975V39.647a.975.975,0,0,1,1.95,0v1.189A.975.975,0,0,1,24.95,41.812Z" transform="translate(-23.975 -38.672)" fill="#ff9100"/>
      </g>
      <g id="Сгруппировать_515" data-name="Сгруппировать 515" transform="translate(33.624 50.527)">
        <path id="Контур_8703" data-name="Контур 8703" d="M27.784,41.812a.975.975,0,0,1-.975-.975V39.647a.975.975,0,1,1,1.95,0v1.189A.975.975,0,0,1,27.784,41.812Z" transform="translate(-26.809 -38.672)" fill="#ff9100"/>
      </g>
      <g id="Сгруппировать_516" data-name="Сгруппировать 516" transform="translate(37.327 50.527)">
        <path id="Контур_8704" data-name="Контур 8704" d="M30.618,41.812a.975.975,0,0,1-.975-.975V39.647a.975.975,0,0,1,1.95,0v1.189A.975.975,0,0,1,30.618,41.812Z" transform="translate(-29.643 -38.672)" fill="#ff9100"/>
      </g>
      <g id="Сгруппировать_517" data-name="Сгруппировать 517" transform="translate(41.03 50.527)">
        <path id="Контур_8705" data-name="Контур 8705" d="M33.453,41.812a.975.975,0,0,1-.975-.975V39.647a.975.975,0,1,1,1.95,0v1.189A.975.975,0,0,1,33.453,41.812Z" transform="translate(-32.478 -38.672)" fill="#ff9100"/>
      </g>
      <g id="Сгруппировать_518" data-name="Сгруппировать 518" transform="translate(29.921 55.57)">
        <path id="Контур_8706" data-name="Контур 8706" d="M24.95,45.672a.975.975,0,0,1-.975-.975V43.507a.975.975,0,0,1,1.95,0V44.7A.975.975,0,0,1,24.95,45.672Z" transform="translate(-23.975 -42.532)" fill="#ff9100"/>
      </g>
      <g id="Сгруппировать_519" data-name="Сгруппировать 519" transform="translate(33.624 55.57)">
        <path id="Контур_8707" data-name="Контур 8707" d="M27.784,45.672a.975.975,0,0,1-.975-.975V43.507a.975.975,0,0,1,1.95,0V44.7A.975.975,0,0,1,27.784,45.672Z" transform="translate(-26.809 -42.532)" fill="#ff9100"/>
      </g>
      <g id="Сгруппировать_520" data-name="Сгруппировать 520" transform="translate(37.327 55.57)">
        <path id="Контур_8708" data-name="Контур 8708" d="M30.618,45.672a.975.975,0,0,1-.975-.975V43.507a.975.975,0,0,1,1.95,0V44.7A.975.975,0,0,1,30.618,45.672Z" transform="translate(-29.643 -42.532)" fill="#ff9100"/>
      </g>
      <g id="Сгруппировать_521" data-name="Сгруппировать 521" transform="translate(41.03 55.57)">
        <path id="Контур_8709" data-name="Контур 8709" d="M33.453,45.672a.975.975,0,0,1-.975-.975V43.507a.975.975,0,0,1,1.95,0V44.7A.975.975,0,0,1,33.453,45.672Z" transform="translate(-32.478 -42.532)" fill="#ff9100"/>
      </g>
      <g id="Сгруппировать_522" data-name="Сгруппировать 522" transform="translate(29.921 60.614)">
        <path id="Контур_8710" data-name="Контур 8710" d="M24.95,49.532a.975.975,0,0,1-.975-.975V47.368a.975.975,0,0,1,1.95,0v1.189A.975.975,0,0,1,24.95,49.532Z" transform="translate(-23.975 -46.393)" fill="#ff9100"/>
      </g>
      <g id="Сгруппировать_523" data-name="Сгруппировать 523" transform="translate(33.624 60.614)">
        <path id="Контур_8711" data-name="Контур 8711" d="M27.784,49.532a.975.975,0,0,1-.975-.975V47.368a.975.975,0,0,1,1.95,0v1.189A.975.975,0,0,1,27.784,49.532Z" transform="translate(-26.809 -46.393)" fill="#ff9100"/>
      </g>
      <g id="Сгруппировать_524" data-name="Сгруппировать 524" transform="translate(37.327 60.614)">
        <path id="Контур_8712" data-name="Контур 8712" d="M30.618,49.532a.975.975,0,0,1-.975-.975V47.368a.975.975,0,0,1,1.95,0v1.189A.975.975,0,0,1,30.618,49.532Z" transform="translate(-29.643 -46.393)" fill="#ff9100"/>
      </g>
      <path id="Контур_8713" data-name="Контур 8713" d="M33.453,46.393a.975.975,0,0,0-.975.975v1.189a.973.973,0,0,0,.468.832q.727-.252,1.437-.538a.974.974,0,0,0,.045-.293V47.368A.975.975,0,0,0,33.453,46.393Z" transform="translate(8.553 14.221)" fill="#ff9100"/>
      <g id="Сгруппировать_525" data-name="Сгруппировать 525" transform="translate(25.088 44.279)">
        <path id="Контур_8714" data-name="Контур 8714" d="M41.246,37.4H22.031a1.755,1.755,0,0,1,0-3.51H41.246a1.755,1.755,0,0,1,0,3.51Z" transform="translate(-20.276 -33.891)" fill="#ffdd40"/>
      </g>
      <path id="Контур_8715" data-name="Контур 8715" d="M30,35.646a1.755,1.755,0,0,1,1.755-1.755H22.031a1.755,1.755,0,0,0,0,3.51h9.723A1.755,1.755,0,0,1,30,35.646Z" transform="translate(4.812 10.389)" fill="#ffc839"/>
      <g id="Сгруппировать_526" data-name="Сгруппировать 526" transform="translate(14.966 4.749)">
        <path id="Контур_8716" data-name="Контур 8716" d="M24.2,5.585H13.5a.975.975,0,1,1,0-1.95H24.2a.975.975,0,0,1,0,1.95Z" transform="translate(-12.529 -3.635)" fill="#e9efff"/>
      </g>
      <g id="Сгруппировать_527" data-name="Сгруппировать 527" transform="translate(10.106 14.497)">
        <path id="Контур_8717" data-name="Контур 8717" d="M30.2,13.046H9.784a.975.975,0,0,1,0-1.95H30.2a.975.975,0,1,1,0,1.95Z" transform="translate(-8.809 -11.096)" fill="#e9efff"/>
      </g>
      <g id="Сгруппировать_528" data-name="Сгруппировать 528" transform="translate(7.156 29.002)">
        <path id="Контур_8718" data-name="Контур 8718" d="M33.841,24.148H7.526a.975.975,0,1,1,0-1.95H33.841a.975.975,0,1,1,0,1.95Z" transform="translate(-6.551 -22.198)" fill="#e9efff"/>
      </g>
      <g id="Сгруппировать_529" data-name="Сгруппировать 529" transform="translate(18.462 8.145)">
        <path id="Контур_8719" data-name="Контур 8719" d="M16.18,10.925A.975.975,0,0,1,15.2,9.95V7.209a.975.975,0,1,1,1.95,0V9.95A.975.975,0,0,1,16.18,10.925Z" transform="translate(-15.205 -6.234)" fill="#a8b7ef"/>
      </g>
      <g id="Сгруппировать_530" data-name="Сгруппировать 530" transform="translate(22.165 8.145)">
        <path id="Контур_8720" data-name="Контур 8720" d="M19.014,10.925a.975.975,0,0,1-.975-.975V7.209a.975.975,0,0,1,1.95,0V9.95A.975.975,0,0,1,19.014,10.925Z" transform="translate(-18.039 -6.234)" fill="#a8b7ef"/>
      </g>
    </g>
  </g>
</svg>
